<?xml version="1.0" encoding="UTF-8" standalone="no"?>
<!DOCTYPE svg PUBLIC "-//W3C//DTD SVG 1.1//EN" "http://www.w3.org/Graphics/SVG/1.1/DTD/svg11.dtd">
<svg width="100%" height="100%" viewBox="0 0 3508 2481" version="1.1" xmlns="http://www.w3.org/2000/svg" xmlns:xlink="http://www.w3.org/1999/xlink" xml:space="preserve" xmlns:serif="http://www.serif.com/" style="fill-rule:evenodd;clip-rule:evenodd;stroke-linecap:round;stroke-linejoin:round;stroke-miterlimit:1.5;">
    <g transform="matrix(8.90328,0,0,8.25106,-4268.68,-12668.2)">
        <g transform="matrix(0.0947323,5.286e-18,-5.2587e-18,0.0952241,515.675,1596.44)">
            <ellipse cx="1619.71" cy="2222.25" rx="388.659" ry="71.418" style="fill:rgb(128,128,128);stroke:rgb(128,128,128);stroke-width:27.82px;"/>
        </g>
        <g transform="matrix(0.483619,0.102383,-0.0901366,0.470894,511.454,890.798)">
            <path d="M636.77,1775.26C635.325,1776.08 634.755,1778.62 633.822,1780.17C630.92,1785.01 628.322,1790.11 625.289,1794.87C624.139,1796.68 623.118,1798.88 621.613,1800.39C621.395,1800.61 620.727,1801.57 620.432,1801.57C620.058,1801.57 620.205,1800.85 620.038,1800.52C619.59,1799.62 618.837,1798.66 618.069,1798.02C615.509,1795.89 608.752,1794.24 606.254,1797.24C600.662,1803.95 607.232,1814.61 613.868,1817.45C615.732,1818.25 618.359,1819.97 620.563,1819.42C626.444,1817.95 630.469,1810.81 634.084,1806.16C639.196,1799.59 646.156,1793.83 652.069,1787.92C654.547,1785.44 657.571,1782.81 659.946,1780.43C660.275,1780.1 662.308,1778.96 662.308,1778.6L661.39,1778.6C660.721,1778.6 660.079,1778.54 659.42,1778.46C657.102,1778.21 654.859,1777.92 652.594,1777.55C650.04,1777.12 647.498,1776.61 644.98,1776.1C642.128,1775.53 639.09,1773.26 636.185,1772.29C635.605,1772.1 635.66,1776.69 635.66,1776.5" style="fill:rgb(254,220,189);stroke:black;stroke-width:3.67px;"/>
        </g>
        <g transform="matrix(0.492462,0.0306015,-0.0269428,0.479504,413.066,922.732)">
            <path d="M636.77,1775.26C635.325,1776.08 634.755,1778.62 633.822,1780.17C630.92,1785.01 628.322,1790.11 625.289,1794.87C624.139,1796.68 623.118,1798.88 621.613,1800.39C621.395,1800.61 620.727,1801.57 620.432,1801.57C620.058,1801.57 620.205,1800.85 620.038,1800.52C619.59,1799.62 618.837,1798.66 618.069,1798.02C615.509,1795.89 608.752,1794.24 606.254,1797.24C600.662,1803.95 607.232,1814.61 613.868,1817.45C615.732,1818.25 618.359,1819.97 620.563,1819.42C626.444,1817.95 630.469,1810.81 634.084,1806.16C639.196,1799.59 646.156,1793.83 652.069,1787.92C654.547,1785.44 657.571,1782.81 659.946,1780.43C660.275,1780.1 662.308,1778.96 662.308,1778.6L661.39,1778.6C660.721,1778.6 660.079,1778.54 659.42,1778.46C657.102,1778.21 654.859,1777.92 652.594,1777.55C650.04,1777.12 647.498,1776.61 644.98,1776.1C642.128,1775.53 639.09,1773.26 636.185,1772.29C635.605,1772.1 635.66,1776.69 635.66,1776.5" style="fill:rgb(254,220,189);stroke:black;stroke-width:3.67px;"/>
        </g>
        <g transform="matrix(0.471376,0.153018,-0.134711,0.458973,586.373,875.295)">
            <path d="M614.389,1721.61C614.998,1721.07 607.613,1733.57 605.59,1737.62C602.432,1743.94 598.762,1749.91 595.358,1756.04C594.148,1758.22 593.93,1762.92 592.63,1764.22C591.513,1765.34 585.925,1764.56 584.104,1767.29C582.547,1769.63 581.203,1773.31 584.445,1775.48C586.584,1776.9 589.288,1777.4 591.266,1778.89C593.7,1780.71 596.113,1780.1 598.769,1779.57C609.653,1777.39 601.635,1770.74 608.318,1761.83C614.452,1753.66 620.3,1744.05 627.416,1736.94" style="fill:rgb(254,220,189);stroke:black;stroke-width:3.67px;"/>
        </g>
        <g transform="matrix(0.493319,0.00144253,-0.00119206,0.45001,339.302,999.644)">
            <path d="M719.758,1616.9C724.629,1610.86 722.243,1604.4 720.632,1597.96C715.537,1577.58 688.296,1558.48 665.696,1568.17C662.72,1569.44 657.732,1570.23 655.454,1572.51C648.491,1579.47 645.247,1589.76 647.384,1600.44C647.784,1602.45 651.502,1615.57 651.108,1615.96C648.908,1618.16 643.132,1618.93 640.245,1621.24C628.681,1630.49 619.085,1640.13 616.036,1655.38C614.358,1663.77 615.343,1672.23 619.761,1679.59C622.288,1683.8 628.443,1687.65 627.83,1687.04C626.941,1686.15 621.898,1689.16 621.002,1689.83C616.539,1693.18 610.044,1701.85 607.863,1708.4C600.415,1730.79 608.122,1752.53 628.141,1765.88C650.314,1780.66 680.497,1778.16 704.803,1772.08C714.788,1769.59 724.752,1767.05 733.358,1760.6C737.557,1757.45 745.226,1749.54 747.332,1745.33C751.23,1737.53 755.99,1729.37 757.877,1719.94C760.23,1708.18 753.397,1693.45 744.221,1686.11C741.914,1684.26 734.089,1677.53 731.185,1676.8C730.423,1676.61 730.254,1677.82 730.254,1677.42C730.254,1677.05 730.851,1676.96 731.185,1676.8C734.657,1675.06 737.512,1671.88 739.876,1668.73C744.734,1662.25 745.504,1653.23 744.531,1645.45C743.38,1636.24 737.521,1629.27 732.427,1622.48C730.841,1620.37 727.606,1619.06 725.288,1618.14C723.981,1617.61 719.846,1616.89 721.253,1616.89" style="fill:rgb(253,185,104);stroke:black;stroke-width:3.67px;"/>
        </g>
    </g>
    <g transform="matrix(4.31764,-0.785248,0.580235,3.03056,-2197.53,-2722.95)">
        <path d="M730.916,1723.91C730.581,1723.95 732.902,1733.37 733.138,1734.55C734.756,1742.64 736.02,1753.69 736.936,1761.94C737.794,1769.67 738.723,1776.67 738.723,1784.34C738.723,1785.79 734.434,1790.55 733.479,1791.51C731.843,1793.14 730.068,1793.23 730.068,1796.62C730.068,1800.4 734.798,1807.38 739.958,1804.81C743.911,1802.83 749.509,1801.73 751.895,1796.96C751.946,1796.86 751.895,1796.73 751.895,1796.62C751.895,1795.16 750.171,1781.5 749.849,1779.57C748.623,1772.22 748.488,1763.45 746.695,1756.28C745.041,1749.66 744.392,1729.36 744.392,1723.3" style="fill:rgb(254,220,189);stroke:black;stroke-width:3.67px;"/>
    </g>
    <g transform="matrix(8.90328,0,0,8.25106,-4272.86,-12678.4)">
        <g transform="matrix(0.0973633,0,0,0.103518,514.59,1589.83)">
            <ellipse cx="1689.06" cy="1659.16" rx="25.109" ry="39.235"/>
        </g>
        <g transform="matrix(0.0973633,0,0,0.103518,498.653,1589.94)">
            <ellipse cx="1689.06" cy="1659.16" rx="25.109" ry="39.235"/>
        </g>
        <g transform="matrix(0.0905455,0,0,0.0952241,504.589,1596.03)">
            <path d="M1750.14,1857.66C1744.76,1861.3 1769.33,1883.8 1775.24,1887.74C1801.12,1904.99 1885.14,1898.18 1885.14,1860.46" style="fill:none;stroke:black;stroke-width:28.49px;"/>
        </g>
    </g>
    <g transform="matrix(4.39216,0.0119024,-0.0113285,3.96331,-1248.71,-4816.76)">
        <path d="M719.862,1616.95C720.093,1617 720.455,1616.84 720.681,1616.79C720.793,1616.76 720.901,1616.76 720.959,1616.82C721.017,1616.88 721.089,1616.93 721.073,1616.93" style="fill:rgb(115,109,104);stroke:black;stroke-width:3.67px;"/>
    </g>
    <g transform="matrix(4.05641,0.0109925,-0.0113285,3.96331,-1037.35,-4816.19)">
        <path d="M653.488,1618.41C653.687,1618.02 653.567,1620.03 653.421,1620.69C653.011,1622.53 653.412,1624.33 652.885,1626.18C651.423,1631.3 649.461,1636.2 647.263,1641.04C645.083,1645.83 641.326,1650.27 637.089,1653.35C635.492,1654.51 633.638,1655.28 632.003,1656.3C631.536,1656.59 629.037,1657.49 629.593,1657.77C633.602,1659.77 639.872,1655.94 643.782,1654.96C653.89,1652.43 663.99,1646.09 671.76,1639.43C675.473,1636.25 679.028,1633.75 681.13,1629.12C684.043,1622.71 686.478,1614.09 679.925,1609.18C678.72,1608.27 676.918,1607.04 675.374,1607.04" style="fill:none;stroke:black;stroke-width:3.67px;"/>
    </g>
    <g transform="matrix(0.806152,0,0,0.785699,240.934,546.811)">
        <path d="M2066.43,1327.52C2068.46,1328.13 2044.28,1356.8 2037.93,1363.15C2030.25,1370.83 1986.1,1416.63 1978.38,1416.63" style="fill:none;stroke:black;stroke-width:28.49px;"/>
    </g>
</svg>
