<?xml version="1.0" encoding="UTF-8" standalone="no"?>
<!DOCTYPE svg PUBLIC "-//W3C//DTD SVG 1.1//EN" "http://www.w3.org/Graphics/SVG/1.1/DTD/svg11.dtd">
<svg width="100%" height="100%" viewBox="0 0 3508 2481" version="1.1" xmlns="http://www.w3.org/2000/svg" xmlns:xlink="http://www.w3.org/1999/xlink" xml:space="preserve" xmlns:serif="http://www.serif.com/" style="fill-rule:evenodd;clip-rule:evenodd;stroke-linecap:round;stroke-linejoin:round;stroke-miterlimit:1.5;">
    <ellipse cx="1754.21" cy="2002.99" rx="591.595" ry="149.008" style="fill:rgb(128,128,128);"/>
    <g id="レイヤー1">
        <g transform="matrix(3.06578,0,0,2.62259,-4707.59,-2110.13)">
            <path d="M1962.54,1222.49C1963.35,1222.56 1961.84,1222.55 1960.8,1224.1C1956.17,1231.05 1953.02,1237.99 1947.56,1244.35C1937.47,1256.12 1926.8,1271.14 1922.64,1286.41C1917.66,1304.68 1909.16,1322.16 1903.17,1340.15C1896.33,1360.65 1905.66,1390.46 1896.16,1409.47C1894.12,1413.54 1880.03,1422.39 1883.69,1429.72C1885.45,1433.23 1895.38,1428.16 1895.38,1428.16C1895.38,1428.16 1894.44,1430.8 1893.82,1432.05C1891,1437.69 1890.72,1447.64 1893.82,1450.75C1896.82,1453.75 1904.26,1434.71 1904.72,1435.17C1907.37,1437.82 1904.11,1451.25 1905.5,1455.42C1905.84,1456.43 1908.52,1460.2 1910.18,1458.54C1913.3,1455.41 1916.41,1445.74 1916.41,1441.4L1916.41,1436.73C1917.37,1436.73 1917.19,1437.82 1917.19,1438.29C1917.19,1444.01 1918.81,1452.37 1921.86,1455.42C1925.92,1459.49 1927.22,1438.38 1926.53,1439.06C1925.25,1440.35 1934.18,1456.48 1935.88,1453.08C1942.07,1440.71 1926.31,1407.35 1932.76,1400.9C1936.88,1396.78 1953.64,1330.17 1968.59,1315.23C1974.86,1308.96 1977.97,1288.74 1985.73,1288.74" style="fill:rgb(235,180,152);stroke:black;stroke-width:5.52px;"/>
        </g>
        <g transform="matrix(3.06578,0,0.0161474,2.62259,-4750.91,-2133.5)">
            <path d="M2136.88,1432.84C2136.47,1432.82 2139.33,1448.96 2140.57,1452.66C2144.11,1463.27 2142.4,1477.72 2147.44,1487.79C2149.67,1492.24 2146.57,1500.46 2148.2,1505.36C2151.83,1516.22 2160.11,1525.8 2163.48,1535.91C2165.62,1542.33 2159.09,1549.28 2162.72,1556.53C2165.28,1561.66 2169.69,1562.85 2171.88,1567.23C2175.58,1574.62 2175.91,1582.91 2179.52,1590.14C2179.63,1590.37 2179.34,1590.72 2179.52,1590.9C2180.84,1592.22 2184.3,1596.92 2187.16,1595.49C2187.96,1595.08 2189.78,1592 2190.21,1592.43C2191.76,1593.98 2193.34,1599.27 2197.85,1597.01C2201.13,1595.37 2200.09,1591.72 2201.67,1590.14C2201.97,1589.84 2203.68,1590.76 2203.96,1590.9C2207.82,1592.83 2206.93,1590.23 2210.07,1587.08C2211.85,1585.31 2214.44,1590.14 2216.95,1590.14C2218.8,1590.14 2218.47,1584.79 2218.47,1584.79C2218.47,1584.79 2225.97,1589.02 2226.88,1586.32C2228.37,1581.84 2197.43,1542.71 2194.03,1535.91C2192.14,1532.12 2199.07,1524.14 2196.32,1521.4C2180.02,1505.1 2189.45,1450.44 2189.45,1425.92" style="fill:rgb(235,180,152);stroke:black;stroke-width:5.5px;"/>
        </g>
        <g transform="matrix(2.75464,0.00154438,-0.00192904,2.51787,-4124.58,-2003.58)">
            <path d="M2045.24,1431.12C2044,1431.18 2046.89,1450.24 2046.89,1454.17C2046.89,1478.42 2054.2,1504.15 2058.17,1527.94C2059.06,1533.31 2061.64,1561.21 2059.11,1564.59C2054.04,1571.34 2034.88,1579.5 2037.02,1588.08C2038.95,1595.79 2046.69,1587.41 2048.3,1589.02C2049.24,1589.95 2044.52,1596.29 2047.83,1597.94C2052.11,1600.08 2057.91,1595.85 2060.52,1593.25C2061.01,1592.75 2061.46,1591.37 2061.46,1591.37C2061.46,1591.37 2058.18,1598.9 2060.52,1601.23C2063.47,1604.18 2069.09,1598.18 2070.38,1595.6C2070.42,1595.52 2070.18,1593.98 2070.85,1594.66C2072.86,1596.66 2069.25,1608.61 2077.43,1604.52C2081.77,1602.35 2082.07,1594.72 2084.95,1591.84C2086.11,1590.67 2085.24,1602.74 2091.06,1599.83C2099,1595.85 2092.01,1576.36 2089.65,1571.63C2086.37,1565.08 2098.1,1546.26 2096.22,1544.38C2092.96,1541.12 2084.16,1537.5 2088.24,1529.35C2094.44,1516.95 2098.12,1496.05 2094.82,1482.83C2092.47,1473.44 2099.73,1449.29 2102.8,1440.08C2103.39,1438.32 2103.52,1426.45 2104.68,1426.45" style="fill:rgb(235,180,152);stroke:black;stroke-width:5.97px;"/>
        </g>
        <g transform="matrix(3.06578,0,0,2.62259,-4770.6,-2110.79)">
            <path d="M2061.84,1020.11C2055.45,1016.46 2043.67,1023.63 2038.15,1027.08C2011.52,1043.72 2008.18,1052.53 2000.96,1081.43C1996.99,1097.33 2003.21,1114.05 2010.02,1127.67C2012.07,1131.78 2018.59,1137.68 2022.89,1139.12C2024.04,1139.5 2026.23,1140.55 2026.23,1140.55C2026.23,1140.55 2020.94,1140.02 2018.6,1141.02C2014.28,1142.88 2010.6,1147.21 2007.16,1150.08C1993.6,1161.38 1981.95,1173.37 1977.12,1191.09C1973.93,1202.8 1976.78,1216.1 1979.98,1227.32C1981.38,1232.21 1983.97,1235.78 1986.18,1240.19C1986.72,1241.27 1987.61,1243.53 1987.61,1243.53C1987.61,1243.53 1977.88,1243.2 1974.26,1245.91C1965.42,1252.55 1955.46,1259.83 1949.95,1269.75C1933.89,1298.66 1934.56,1334.67 1944.7,1365.1C1952.55,1388.64 1975.35,1401.39 1996.67,1409.92C2040.24,1427.35 2092.8,1431.9 2139.22,1428.04C2189.38,1423.86 2223.58,1422.09 2269.86,1398.95C2312.99,1377.39 2347.43,1306.94 2321.82,1262.12C2313.02,1246.73 2301.7,1236.28 2289.4,1223.98C2284.66,1219.24 2275.09,1217.77 2272.24,1212.06C2270.38,1208.34 2278.86,1202.74 2280.35,1200.14C2283.74,1194.2 2286.5,1181.35 2285.11,1174.4C2281.51,1156.39 2264.88,1148.82 2255.55,1134.83C2251.43,1128.64 2247.58,1129.47 2242.2,1126.25C2240.99,1125.51 2238.39,1124.34 2238.39,1124.34C2238.39,1124.34 2247.25,1117.61 2250.78,1113.37C2258.74,1103.83 2262.15,1093.36 2264.14,1081.43C2268.43,1055.68 2245.83,1034.11 2225.99,1020.88C2215.34,1013.78 2202.94,1007.32 2191.19,1002.29C2186.02,1000.07 2180.1,998.887 2175.46,996.565C2174.56,996.115 2172.6,995.611 2172.6,995.611C2172.6,995.611 2168.16,990.745 2165.44,988.936C2160.78,985.824 2153.43,985.315 2148.28,982.738C2135.29,976.242 2114.76,980.882 2102.03,985.122C2087.55,989.949 2078.07,1000.5 2067.23,1011.34C2065.56,1013.02 2059.47,1020.4 2058.17,1020.4" style="fill:rgb(175,133,80);stroke:black;stroke-width:5.52px;"/>
        </g>
        <g transform="matrix(3.06578,0,0,2.62259,-4843.22,-2124.27)">
            <path d="M2237.81,1227.12C2238.83,1227.21 2241.73,1247.55 2242.75,1253.69C2246.83,1278.19 2255.88,1301.41 2260.66,1325.35C2262.75,1335.78 2274.54,1371.88 2272.35,1380.65C2271.25,1385.02 2263.89,1410.69 2267.67,1412.58C2274.82,1416.15 2279.85,1398.36 2282.47,1393.11C2283.06,1391.93 2283.25,1389.22 2283.25,1389.22L2283.25,1397.01C2283.25,1406.83 2279.19,1428.47 2289.48,1433.61C2293.23,1435.49 2293.38,1411.85 2293.38,1409.47C2293.38,1407.13 2293.38,1400.12 2293.38,1402.46C2293.38,1405.88 2298.08,1440.6 2308.95,1435.17C2314.62,1432.34 2304.35,1408.88 2302.72,1404.02C2302.22,1402.52 2301.94,1399.34 2301.94,1399.34C2301.94,1399.34 2302.36,1400.94 2302.72,1401.68C2306.36,1408.95 2311.5,1425.72 2322.19,1420.37C2328.39,1417.27 2317.52,1400.12 2317.52,1400.12C2317.52,1400.12 2328.97,1405.74 2329.98,1401.68C2334.1,1385.2 2313.34,1379.43 2307.39,1370.52C2297.61,1355.85 2305.96,1275.62 2287.92,1257.59" style="fill:rgb(235,180,152);stroke:black;stroke-width:5.52px;"/>
        </g>
        <g transform="matrix(3.06578,0,0,2.62259,-4791.71,-2138.44)">
            <path d="M2079.58,986.164C2074.27,991.316 2042.06,991.995 2051.93,1021.59C2054.77,1030.13 2124.36,1033.45 2124.36,1019.26C2124.36,1018.88 2119.35,1017.87 2118.91,1017.7C2108.56,1013.56 2078.41,1000.03 2078.41,987.324" style="fill:rgb(105,1,201);stroke:black;stroke-width:5.52px;"/>
        </g>
        <g transform="matrix(3.06578,0,0,2.62259,-4789.69,-2133.33)">
            <path d="M2083.07,984.733C2079.68,985.858 2086.39,970.917 2087.76,968.631C2093.65,958.809 2099.11,948.489 2111.12,944.487C2137.16,935.809 2155.41,958.953 2162.53,980.314C2164.59,986.502 2162.54,995.88 2158.63,999.786C2153.29,1005.13 2147.35,1010.29 2141.5,1016.14C2130.47,1027.17 2079.97,999.503 2079.97,989.661" style="fill:rgb(105,186,201);stroke:black;stroke-width:5.52px;"/>
        </g>
        <g transform="matrix(3.06578,0,0,2.62259,-4828.24,-2157.8)">
            <path d="M2243.11,1243.13C2242.22,1242.76 2242.92,1242.16 2243.74,1242.16C2248.57,1242.16 2254.26,1238.24 2257.23,1244.18C2260.47,1250.66 2269.39,1257.72 2273.41,1265.76C2273.62,1266.16 2272.97,1267.11 2274.09,1267.11C2276.34,1267.11 2274.09,1262.62 2274.09,1260.37C2274.09,1256.07 2264.47,1250.07 2261.95,1247.55C2261.1,1246.7 2258.04,1245.12 2258.58,1246.21C2261.62,1252.28 2271.2,1257.29 2275.44,1265.76C2275.95,1266.79 2276.11,1269.13 2276.11,1269.13C2276.11,1269.13 2274.35,1265.97 2273.41,1264.41C2270.81,1260.08 2253.09,1240.24 2246.44,1246.88C2245.15,1248.17 2247.3,1256.19 2247.79,1257.67C2247.92,1258.07 2248.72,1260.79 2249.14,1260.37C2250.75,1258.76 2244.83,1251.87 2246.44,1250.25C2247.01,1249.68 2255.53,1263.95 2257.23,1265.09C2261.17,1267.71 2262.48,1260.62 2265.32,1264.41C2266.04,1265.37 2268.69,1267.72 2268.69,1268.46" style="fill:none;stroke:rgb(235,180,152);stroke-width:15.28px;"/>
        </g>
    </g>
    <g transform="matrix(3.862,0,0,3.54919,-6387.88,-3106.13)">
        <path d="M2079.43,1085.46C2075,1082.12 2075.57,1074.71 2066.28,1072.85C2048.58,1069.31 2028.61,1115.29 2028.61,1129.58" style="fill:white;stroke:black;stroke-width:4.25px;"/>
    </g>
    <g transform="matrix(3.06578,0,0,2.62259,-4765.24,-2131.48)">
        <path d="M2064.41,1095.72C2062.3,1095.75 2057.99,1109.12 2061.51,1111.46C2065.78,1114.32 2068.25,1093.38 2064.37,1091.44C2064.33,1091.42 2054.86,1112.78 2061.03,1114.33C2066.6,1115.72 2068.08,1096.14 2065.32,1094.3C2062.69,1092.55 2058.17,1110.27 2062.46,1112.42C2066.13,1114.25 2067,1095.52 2066.28,1093.35C2066.23,1093.2 2065.91,1093.24 2065.8,1093.35C2064.44,1094.7 2061.44,1107.58 2063.42,1109.56C2066.44,1112.58 2067.73,1097.68 2066.75,1095.73C2066.59,1095.41 2060.4,1112.42 2064.85,1112.42C2068.55,1112.42 2068.33,1094.02 2066.75,1091.92C2065.51,1090.26 2064.07,1095.2 2063.42,1097.16C2062.61,1099.59 2058.89,1112.36 2062.94,1113.37C2067.06,1114.4 2072.44,1093.37 2066.28,1092.39C2060.47,1091.47 2056.05,1115.16 2061.9,1116.62C2071.28,1118.97 2072.33,1091.44 2064.37,1091.44C2058.6,1091.44 2052.41,1114.94 2063.49,1114.94C2070.98,1114.94 2070.74,1090.65 2064.37,1091.92C2058.72,1093.04 2056.61,1120.13 2065.32,1117.66C2070.42,1116.22 2069.32,1088.32 2063.89,1092.39C2058.94,1096.11 2059.3,1119.31 2065.8,1116.71C2069.83,1115.1 2067.16,1090.19 2063.42,1091.44C2057.09,1093.55 2053.95,1116.34 2062.94,1118.14C2068.55,1119.26 2074.57,1093.17 2065.8,1091.92C2058.5,1090.88 2052.95,1115.47 2062.46,1116.71C2072.45,1118.01 2074.3,1090.32 2063.92,1090.32C2057.09,1090.32 2054.2,1111.77 2061.03,1114.33C2069.81,1117.62 2075.3,1093.34 2063.89,1091.92C2057.44,1091.11 2056.47,1111.27 2060.56,1114.33C2069.64,1121.13 2070.41,1096.6 2065.8,1094.3C2063.12,1092.96 2059.99,1113.05 2065.8,1109.56C2067.95,1108.27 2068.14,1105.82 2069.14,1103.84" style="fill:none;stroke:black;stroke-width:5.52px;"/>
    </g>
    <g transform="matrix(2.98492,0.890196,-1.04063,2.55342,-3447.73,-3953.14)">
        <path d="M2122.77,1106.28C2115.53,1104.9 2130.7,1068.3 2137.32,1066.65C2160.55,1060.84 2165.47,1080.85 2180.22,1091.92C2186.65,1096.74 2198.34,1108 2198.34,1115.76" style="fill:white;stroke:black;stroke-width:5.63px;"/>
    </g>
    <g transform="matrix(3.06578,0,0,2.62259,-4765.24,-2131.48)">
        <path d="M2152.66,1093.15C2152.09,1091.24 2148.22,1110.82 2152.57,1109.08C2155.07,1108.08 2156.1,1102.65 2156.39,1100.5C2156.7,1098.14 2156.57,1095.73 2156.39,1093.35C2155.58,1082.92 2144.36,1104.34 2150.66,1108.13C2154.44,1110.39 2159.89,1089.43 2156.39,1084.77C2156.07,1084.35 2154.66,1084.94 2154.48,1085.24C2152.57,1088.42 2147.46,1108.63 2153.05,1109.08C2157.78,1109.46 2158.86,1089.53 2154.95,1089.53C2150.89,1089.53 2148.45,1112.9 2154.48,1112.89C2160.62,1112.89 2159.47,1092.24 2154.95,1089.53C2152.05,1087.79 2147.77,1105.74 2150.66,1108.6C2156.51,1114.39 2160.9,1089.86 2154,1085.72C2148.69,1082.53 2147.84,1109.08 2152.57,1108.13C2159.51,1106.74 2161.88,1081.37 2154,1083.34C2149.15,1084.55 2143.4,1109.56 2150.66,1109.56C2157.28,1109.56 2161.2,1090.34 2155.43,1087.63C2148.69,1084.46 2144.09,1106.37 2151.89,1108.97C2157.18,1110.74 2163.73,1084.69 2154.48,1083.81C2149.81,1083.37 2145.57,1108.25 2150.19,1111.94C2155.67,1116.33 2162.62,1087.56 2153.05,1086.2C2147.83,1085.45 2143.38,1110.16 2154.24,1110.16C2162.45,1110.16 2163.8,1086.2 2154.95,1086.2C2149.98,1086.2 2147.22,1109.09 2155.43,1106.7C2158.6,1105.77 2158.36,1100.36 2158.77,1098.12C2159.16,1095.96 2159.61,1094.2 2159.25,1091.92C2157.12,1078.52 2143.54,1100.64 2150.66,1104.79C2155.82,1107.8 2160.99,1084.56 2152.57,1081.9C2147.36,1080.26 2143.69,1109.3 2150.22,1109.3C2153.91,1109.3 2161.67,1085.09 2150.59,1085.09C2144.47,1085.09 2142.75,1110.96 2152.45,1109.02C2158.75,1107.76 2159.92,1081.71 2153.05,1080C2148.03,1078.74 2141.28,1103.7 2147.99,1106.38C2156.11,1109.63 2162.67,1085.45 2154.48,1083.34C2143.83,1080.59 2135.9,1110.29 2146.39,1110.29C2153.13,1110.29 2161.6,1088.62 2156.29,1086.49C2146.57,1082.61 2139.75,1108.12 2147.42,1111.18C2158.66,1115.68 2161.58,1085.79 2151.14,1084.77C2145.54,1084.21 2140.78,1105.51 2144.94,1107.17C2154.18,1110.87 2162.65,1087.22 2155.91,1082.86C2148.69,1078.19 2140.71,1105.63 2149.71,1107.17C2159.55,1108.86 2162.48,1085.07 2153.53,1081.9C2145.75,1079.16 2140.83,1110.22 2150.95,1110.22C2162.04,1110.22 2160.45,1084.06 2150.66,1081.9C2146.52,1081 2141.04,1098.94 2146.85,1099.55" style="fill:none;stroke:black;stroke-width:5.52px;"/>
    </g>
    <g transform="matrix(3.06578,0,0,2.62259,-4765.24,-2131.48)">
        <path d="M2094.58,1148.11C2075.88,1150.13 2066.33,1170.39 2082.49,1182.5C2087.66,1186.38 2103.9,1187.62 2110.14,1185.84C2114,1184.74 2118.9,1180.6 2122.53,1180.6" style="fill:none;stroke:black;stroke-width:5.52px;"/>
    </g>
    <g transform="matrix(3.06578,0,0,2.62259,-4765.24,-2131.48)">
        <path d="M2060.57,1202.62C2057.18,1202.3 2059.13,1205.61 2059.13,1211.11L2059.13,1221.6C2060.45,1221.6 2064.37,1183.93 2063.42,1203.96C2063.33,1205.86 2063.42,1207.77 2063.42,1209.68C2063.42,1210.9 2062.44,1218.21 2063.42,1220.17C2063.81,1220.95 2064.87,1214.38 2065.32,1210.63C2065.8,1206.68 2065.79,1201.14 2066.75,1197.28C2066.86,1196.85 2067.23,1199.61 2067.23,1200.14L2067.23,1209.2C2067.23,1211.59 2066.95,1218.62 2067.71,1216.35C2069.23,1211.8 2069.14,1205.44 2069.14,1200.62C2069.14,1198.87 2069.62,1193.62 2069.62,1195.38C2069.62,1198.48 2069.94,1198.18 2070.09,1201.1C2070.18,1202.68 2070.01,1204.28 2070.09,1205.86C2071.07,1224.52 2070.51,1198.29 2073.43,1195.38C2073.77,1195.04 2073.39,1196.33 2073.43,1196.81C2073.77,1200.57 2074.38,1204.5 2074.38,1208.25L2074.38,1211.11C2074.38,1211.11 2074.72,1208.89 2074.86,1207.77C2075.27,1204.45 2074.22,1195.06 2076.77,1192.52C2077.89,1191.39 2077.1,1195.69 2077.24,1197.28C2077.62,1201.41 2077.99,1205.54 2078.2,1209.68C2078.28,1211.27 2077.54,1215.58 2078.67,1214.45C2079.86,1213.26 2079.52,1202.72 2079.63,1201.57C2079.66,1201.24 2080.97,1193.51 2081.06,1193.94C2081.52,1196.24 2081.9,1199.38 2082.01,1201.57C2083.15,1224.43 2081.97,1194.9 2083.44,1194.9C2084.04,1194.9 2083.89,1209.1 2084.39,1210.63C2084.95,1212.3 2084.78,1207.14 2084.87,1205.39C2084.88,1205.26 2084.95,1192.04 2086.78,1192.04C2087.44,1192.04 2087.26,1212.27 2087.26,1213.97C2087.26,1215.33 2087.85,1212.82 2088.21,1203.96C2088.32,1201.19 2087.33,1194.79 2089.16,1192.04C2090.41,1190.17 2090,1196.47 2090.12,1198.71C2090.29,1202.02 2090.12,1205.41 2090.12,1208.73C2090.12,1208.88 2090.04,1209.34 2090.12,1209.2C2091.32,1206.8 2090.94,1201.18 2091.07,1198.71C2091.18,1196.62 2091.68,1190.45 2092.02,1192.52C2092.59,1195.92 2090.57,1208.22 2092.98,1210.63C2093.33,1210.99 2094.67,1189.82 2095.84,1191.56C2097.55,1194.13 2096.31,1200.09 2096.31,1203C2096.31,1204.75 2096.31,1210 2096.31,1208.25L2096.31,1195.38C2096.31,1193.76 2096.82,1189.05 2097.27,1190.61C2098.55,1195.12 2098.02,1201.25 2098.22,1205.86C2098.29,1207.45 2098.22,1209.04 2098.22,1210.63C2098.22,1211.6 2098.16,1214.3 2098.7,1213.49C2100.71,1210.48 2100.22,1203.85 2100.6,1200.62C2101.01,1197.21 2102.16,1187.28 2102.99,1190.61C2103.92,1194.33 2103.94,1200.11 2103.94,1203.96C2103.94,1206.2 2104.35,1212.81 2104.89,1210.63C2105.84,1206.85 2105.51,1201.63 2105.85,1197.76C2106.11,1194.8 2107.51,1186.3 2108.23,1189.18C2109.47,1194.15 2109.19,1199.83 2109.19,1204.91L2109.19,1208.73C2109.19,1208.73 2109.88,1199.51 2110.14,1194.9C2110.23,1193.28 2109.95,1188.99 2111.09,1190.13C2113.86,1192.89 2111.6,1205.94 2113,1210.15C2113.67,1212.17 2114.34,1206.08 2114.43,1203.96C2114.68,1198.3 2113.7,1192.54 2116.34,1187.27C2116.92,1186.1 2117.23,1189.78 2117.29,1191.09C2117.53,1196.02 2118.24,1205.86 2118.24,1205.86L2118.24,1202.53C2118.24,1197.62 2118.23,1192.58 2119.2,1187.75C2119.27,1187.4 2119.36,1186.63 2119.68,1186.79C2121.17,1187.54 2121.04,1198.83 2121.11,1200.14C2121.21,1202.05 2120.23,1207.22 2121.58,1205.86C2123.32,1204.12 2122.78,1195.2 2123.01,1192.99C2123.2,1191.23 2123.17,1186.16 2123.97,1187.75C2126.69,1193.2 2123.03,1201.61 2125.87,1207.3C2126.89,1209.33 2127.08,1202.88 2127.3,1200.62C2127.7,1196.65 2126.3,1191.39 2128.73,1187.75C2129.38,1186.79 2129.55,1189.94 2129.69,1191.09C2130.25,1195.85 2129.86,1195.51 2130.16,1200.62C2130.25,1202.06 2130.4,1206.33 2130.64,1204.91C2131.45,1200.05 2131.58,1195.04 2132.07,1190.13C2132.22,1188.67 2132.48,1184.48 2133.02,1185.84C2134.46,1189.43 2134.24,1194.89 2134.45,1198.71C2134.55,1200.46 2133.69,1205.2 2134.93,1203.96C2138.37,1200.52 2135.07,1190.33 2137.32,1185.84C2137.39,1185.7 2137.3,1186.16 2137.32,1186.32C2137.81,1191.73 2137.55,1191.48 2137.79,1196.81C2137.91,1199.37 2136.93,1206.25 2138.74,1204.43C2142.21,1200.97 2139.54,1189.64 2141.13,1184.89C2141.94,1182.46 2142.08,1189.95 2142.08,1192.52C2142.08,1195.6 2142.56,1198.53 2142.56,1201.57C2142.56,1203.33 2142.89,1198.08 2143.04,1196.33C2143.28,1193.37 2142.62,1188.1 2143.99,1185.36C2144.78,1183.79 2144.38,1188.85 2144.47,1190.61C2144.61,1193.67 2143.48,1201.5 2144.94,1204.43C2145.55,1205.65 2146.2,1201.97 2146.37,1200.62C2146.8,1197.17 2146.96,1193.03 2147.8,1189.65C2148.12,1188.41 2149.4,1185.07 2149.71,1186.32C2150.96,1191.33 2153.19,1190.39 2155.91,1186.32C2156.97,1184.73 2156.39,1190.12 2156.39,1192.04C2156.39,1194.83 2155.67,1201.94 2157.34,1204.43C2159.71,1207.99 2158.24,1188.65 2160.2,1190.61C2162.72,1193.12 2158.7,1200.07 2161.15,1202.53C2162.82,1204.2 2163.54,1193.49 2163.54,1195.85" style="fill:none;stroke:black;stroke-width:5.52px;"/>
    </g>
    <g transform="matrix(3.06578,0,0,2.62259,-4765.24,-2131.48)">
        <path d="M2075.09,1221.88C2073.45,1219.89 2070.33,1230.91 2070.09,1231.61C2066.69,1241.82 2065.32,1249.59 2065.32,1260.69C2065.32,1262.4 2066.6,1271.18 2068.66,1271.18" style="fill:none;stroke:black;stroke-width:5.52px;"/>
    </g>
    <g transform="matrix(3.06578,0,0,2.62259,-4765.24,-2131.48)">
        <path d="M2160.64,1212.49C2156.86,1212.7 2164.79,1220.38 2166.88,1223.51C2170.72,1229.27 2171.14,1236.02 2172.6,1242.58C2173.61,1247.12 2173.93,1251.82 2174.5,1256.4C2174.64,1257.53 2174.5,1262.61 2174.5,1262.12" style="fill:none;stroke:black;stroke-width:5.52px;"/>
    </g>
    <g transform="matrix(3.06578,0,0,2.62259,-4760.06,-2132.64)">
        <path d="M2083.07,1256.49C2080.01,1253.53 2085.77,1242 2087.26,1238.28C2092.05,1226.28 2094.14,1228.04 2106.32,1223.98C2115.16,1221.04 2114.6,1209.1 2129.21,1213.97C2139.36,1217.35 2147.12,1232.15 2151.62,1241.14C2156.61,1251.13 2160.25,1256.93 2158.29,1254.97C2142.77,1239.45 2131.77,1222.86 2106.32,1229.23C2096.87,1231.59 2091.14,1249.15 2086.3,1256.4C2084.45,1259.18 2079.15,1258.01 2079.15,1254.49" style="fill:rgb(193,63,63);stroke:black;stroke-width:5.52px;"/>
    </g>
    <g transform="matrix(3.06578,0,0,2.62259,-4765.24,-2131.48)">
        <path d="M2093.19,1259.84C2085.68,1258.75 2083.66,1274.34 2092.02,1276.42C2108.2,1280.47 2127.72,1281.04 2142.56,1272.13C2146.18,1269.96 2155.49,1259.38 2153.05,1254.49C2147.32,1243.03 2139.89,1256.12 2133.02,1260.69C2128.26,1263.87 2121.69,1263.5 2116.81,1265.94C2108.95,1269.87 2088.68,1253.75 2088.68,1261.17" style="fill:rgb(190,66,66);stroke:black;stroke-width:5.52px;"/>
    </g>
    <g transform="matrix(3.05035,0.262767,-0.307172,2.6094,-4349.38,-2679.95)">
        <path d="M2104.44,1234.02C2095.75,1233.6 2101.08,1249.51 2101.08,1255.92C2101.08,1257.56 2103.75,1253.77 2105.37,1253.54C2106.59,1253.37 2111.71,1254.84 2112.52,1254.02C2113.36,1253.18 2112.86,1246.83 2113,1245.44C2113.58,1239.61 2116.81,1233.91 2116.81,1228.75" style="fill:white;stroke:black;stroke-width:5.61px;"/>
    </g>
    <g transform="matrix(3.06578,0,0,2.62259,-4760.82,-2137.9)">
        <path d="M2126.57,1230.05C2123.21,1239.11 2123.23,1244.96 2133.5,1244.96C2133.51,1244.96 2136.17,1234.66 2137.32,1233.52" style="fill:white;stroke:black;stroke-width:5.52px;"/>
    </g>
    <g transform="matrix(3.06578,0,0,2.62259,-4764.04,-2120.95)">
        <path d="M2117.71,1262.79C2113.83,1265.42 2118.72,1248.77 2118.72,1248.77C2118.72,1248.77 2125.66,1249.62 2128.73,1251.16C2129.9,1251.74 2128.74,1260.7 2130.16,1262.12" style="fill:white;stroke:black;stroke-width:5.52px;"/>
    </g>
    <g transform="matrix(3.06578,0,0,2.62259,-4783.35,-2128.36)">
        <path d="M2057.45,1291.95C2046.79,1292.93 2077.11,1314.06 2086.8,1315.56C2108.17,1318.84 2110.54,1312.72 2121.58,1309.32C2128.92,1307.06 2135.36,1302.19 2142.56,1299.79" style="fill:none;stroke:black;stroke-width:5.52px;"/>
    </g>
    <g transform="matrix(3.06578,0,0,2.62259,-4765.24,-2131.48)">
        <path d="M2044.11,1308.94C2040.39,1308.73 2048.11,1321.88 2049.11,1323.62C2055.49,1334.63 2064.11,1338.54 2075.81,1339.84C2092.41,1341.68 2110.62,1333.63 2124.92,1326.49C2129.52,1324.19 2137.56,1314.57 2142.08,1314.57" style="fill:none;stroke:black;stroke-width:5.52px;"/>
    </g>
    <g transform="matrix(3.06578,0,0,2.62259,-4765.24,-2131.48)">
        <path d="M2061.89,1200.73C2060.93,1200.42 2061.94,1203.16 2061.97,1203.6C2062.18,1206.68 2062.12,1209.78 2061.97,1212.86C2061.92,1213.97 2061.25,1217.25 2061.6,1216.19C2062.1,1214.7 2064.04,1196.2 2066.41,1196.2C2066.6,1196.2 2066.05,1198.93 2065.3,1204.34C2064.51,1210.11 2064.73,1209.8 2064.19,1215.45C2064.1,1216.44 2063.82,1218.41 2063.82,1218.41C2063.82,1218.41 2064.91,1214.48 2065.3,1212.49C2066.08,1208.61 2065.19,1200.02 2068.27,1196.94C2069.23,1195.98 2068.64,1199.65 2068.64,1201.01C2068.64,1206.09 2068.27,1211.12 2068.27,1216.19C2068.27,1217.09 2068.81,1214.48 2069.01,1213.6C2069.33,1212.13 2069.55,1210.64 2069.75,1209.16C2070.33,1204.8 2069.32,1193.3 2072.71,1189.9C2073,1189.61 2073.08,1194.27 2073.08,1198.79C2073.08,1203.65 2071.97,1208.49 2071.97,1213.23C2071.97,1214.46 2071.97,1210.76 2071.97,1209.53C2071.97,1206.35 2071.89,1203.04 2072.34,1199.9C2072.76,1196.97 2073.77,1193.54 2073.82,1193.61C2077.39,1198.96 2072.93,1208.33 2074.93,1214.34C2075.21,1215.19 2075.58,1212.64 2075.67,1211.75C2075.84,1210.15 2075.93,1208.54 2076.04,1206.93C2076.2,1204.68 2075.84,1192.96 2078.26,1191.76C2078.37,1191.7 2078.54,1191.67 2078.63,1191.76C2080.47,1193.59 2079,1202.81 2079,1204.71C2079,1206.94 2078.63,1211.38 2078.63,1211.38L2078.63,1208.41C2078.63,1204.72 2078.34,1200.61 2078.63,1196.94C2078.76,1195.38 2078.63,1192.01 2080.11,1192.5C2081.57,1192.97 2080.86,1210.27 2081.22,1210.27C2081.41,1210.27 2082.69,1198.88 2082.7,1198.79C2082.71,1198.74 2083.7,1190.83 2083.82,1191.38C2084.57,1195.16 2083.82,1200.97 2083.82,1204.71C2083.82,1208.49 2083.89,1212.71 2084.18,1212.12C2086.15,1208.18 2085.49,1201.84 2086.04,1197.68C2086.21,1196.33 2085.44,1192.64 2086.41,1193.61C2089.39,1196.59 2085.92,1206.33 2087.89,1210.27C2088.61,1211.71 2088.19,1207.06 2088.26,1205.45C2088.28,1205.04 2088.88,1196.64 2089,1195.83C2089.17,1194.7 2089.61,1191.37 2089.74,1192.5C2090.47,1199.11 2090.11,1205.84 2090.11,1212.49C2090.11,1213.47 2090.55,1211.71 2091.22,1205.45C2091.29,1204.8 2092.87,1191.76 2093.07,1191.76C2093.78,1191.76 2093.81,1203.37 2093.81,1203.97L2093.81,1207.67C2093.81,1208.41 2093.29,1210.42 2093.81,1209.9C2095.42,1208.29 2094.95,1184.1 2096.03,1197.68C2096.17,1199.41 2096.27,1201.13 2096.4,1202.86C2096.41,1202.9 2096.64,1210.5 2097.14,1211.01C2097.76,1211.62 2097.47,1209.29 2097.51,1208.41C2097.6,1206.81 2097.76,1205.21 2097.88,1203.6C2098.12,1200.39 2098.45,1197.19 2098.62,1193.98C2098.68,1192.98 2098.68,1190.07 2098.99,1191.02C2099.58,1192.78 2099.2,1194.72 2099.36,1196.57C2099.49,1197.93 2099.67,1199.28 2099.73,1200.64C2100.48,1216.32 2100.82,1195.89 2101.59,1191.38C2101.72,1190.62 2101.64,1188.8 2102.33,1189.16C2104.89,1190.54 2101.92,1203.53 2103.44,1206.56C2104.23,1208.14 2104.23,1203.12 2104.55,1201.38C2105.25,1197.54 2105.47,1193.77 2106.03,1189.9C2106.14,1189.09 2107.06,1186.86 2107.14,1187.68C2107.74,1193.66 2107.51,1199.82 2107.51,1205.82C2107.51,1207.53 2107.68,1204.15 2107.88,1199.53C2108.01,1196.45 2107.81,1191.73 2108.99,1188.79C2109.5,1187.53 2109.36,1191.5 2109.36,1192.87C2109.36,1194.97 2108.33,1204.79 2110.1,1206.56C2111.62,1208.09 2111.2,1202.39 2111.58,1200.27C2112.23,1196.71 2112.17,1192.44 2113.8,1189.16C2114.36,1188.06 2114.05,1191.63 2114.17,1192.87C2114.6,1197.31 2114.3,1196.96 2114.54,1201.75C2114.61,1203.16 2115.21,1207.16 2115.65,1205.82C2116.47,1203.38 2116.2,1198.65 2116.39,1196.2C2116.52,1194.59 2116.53,1192.98 2116.76,1191.38C2116.91,1190.38 2117.26,1187.44 2117.51,1188.42C2118.45,1192.22 2118.29,1196.02 2118.62,1199.9C2118.88,1203.05 2119.2,1206.66 2119.36,1206.19C2120.15,1203.8 2119.85,1199.18 2120.1,1196.94C2120.28,1195.33 2120.61,1193.73 2120.84,1192.13C2121,1191 2121.22,1187.71 2121.58,1188.79C2122.62,1191.93 2122.51,1196.26 2122.69,1199.53C2122.78,1201.14 2121.92,1205.48 2123.06,1204.34C2125.01,1202.39 2123.92,1194.95 2124.17,1192.5C2124.28,1191.38 2124.27,1188.08 2124.54,1189.16C2125.37,1192.5 2125.48,1206.19 2126.76,1206.19C2128.83,1206.19 2126.47,1190.57 2128.61,1188.42C2129.75,1187.29 2128.77,1191.64 2128.98,1193.24C2129.41,1196.54 2129.28,1201.99 2130.83,1205.08C2131.05,1205.53 2130.8,1204.1 2130.83,1203.6C2130.93,1202.24 2131.15,1200.89 2131.2,1199.53C2131.27,1197.8 2131.14,1196.07 2131.2,1194.35C2131.31,1191.29 2131.39,1189.31 2131.94,1186.57C2132.21,1185.24 2132.15,1189.29 2132.31,1190.64C2132.74,1194.26 2132.86,1200.99 2134.53,1204.34C2135.25,1205.78 2134.91,1201.14 2134.91,1199.53C2134.91,1195.52 2134.32,1190.41 2135.28,1186.57C2135.7,1184.88 2135.88,1190.02 2136.01,1191.76C2136.04,1192.1 2136.43,1204.34 2137.87,1204.34C2138.49,1204.34 2137.67,1194.07 2138.61,1188.42C2138.83,1187.08 2138.86,1191.14 2138.98,1192.5C2139.38,1197.17 2139.34,1196.9 2140.09,1201.38C2140.42,1203.39 2140.13,1208.74 2141.57,1207.31C2143.04,1205.83 2142.61,1195.04 2142.68,1193.24C2142.86,1188.84 2142.97,1187.31 2143.05,1187.68C2143.87,1191.79 2144,1195.74 2144.16,1199.9C2144.19,1200.72 2144.7,1207.14 2144.9,1208.41C2144.96,1208.8 2144.99,1209.8 2145.27,1209.53C2147.56,1207.24 2144.75,1191.4 2146.38,1187.31C2146.85,1186.14 2146.95,1189.77 2147.12,1191.02C2147.34,1192.62 2147.74,1194.21 2147.86,1195.83C2148.01,1197.87 2146.94,1206.75 2148.97,1208.79C2149.22,1209.03 2149.34,1206.41 2149.34,1200.64C2149.34,1197.08 2148.54,1191.59 2149.71,1188.05C2150.11,1186.88 2149.92,1190.53 2150.08,1191.76C2150.49,1194.79 2151.02,1208.79 2151.19,1208.79C2151.42,1208.79 2151.63,1191.32 2153.05,1189.9C2154.01,1188.94 2153.3,1192.62 2153.42,1193.98C2153.49,1194.84 2153.99,1202.41 2154.16,1203.6C2154.41,1205.35 2154.02,1210.04 2155.27,1208.79C2157.55,1206.5 2156.01,1193.98 2156.01,1190.64C2156.01,1189.28 2156.32,1193.36 2156.38,1194.72C2156.49,1197.4 2156.75,1200.51 2156.75,1203.23C2156.75,1204.84 2155.51,1208.05 2157.12,1208.05C2157.57,1208.05 2156.32,1194.41 2157.49,1193.24C2157.85,1192.88 2157.78,1194.22 2157.86,1194.72C2158.14,1196.43 2158.09,1198.17 2158.23,1199.9C2158.56,1203.9 2158.54,1203.7 2159.34,1207.67C2159.51,1208.56 2159.68,1211.07 2160.08,1210.27C2161.19,1208.04 2160.49,1203.47 2160.82,1201.01C2161.13,1198.67 2161.27,1196.32 2161.56,1193.98C2161.58,1193.86 2161.56,1193.48 2161.56,1193.61C2161.56,1196.69 2161.78,1196.37 2161.93,1199.53C2161.99,1200.89 2161.93,1202.25 2161.93,1203.6L2161.93,1207.67C2161.93,1218.98 2162.11,1198.24 2162.67,1197.68C2163.29,1197.06 2162.98,1199.4 2163.04,1200.27C2163.33,1204.28 2163.43,1203.97 2164.15,1208.05C2164.4,1209.43 2164.63,1213.38 2165.26,1212.12C2165.73,1211.17 2164.99,1199.53 2165.26,1199.53C2165.75,1199.53 2165.89,1206.43 2166,1207.31C2166.17,1208.55 2166.74,1212.27 2166.74,1211.01C2166.74,1210.64 2166.74,1211.19 2166.74,1211.38" style="fill:none;stroke:black;stroke-width:5.52px;"/>
    </g>
    <g transform="matrix(3.06578,0,0,2.62259,-4765.24,-2131.48)">
        <path d="M2125.86,1117.12C2125.75,1117.11 2133.54,1126.36 2137.03,1128.11C2145.25,1132.22 2158.88,1139.14 2167.8,1139.14" style="fill:none;stroke:black;stroke-width:5.52px;"/>
    </g>
    <g transform="matrix(3.06578,0,0,2.62259,-4765.24,-2131.48)">
        <path d="M2083.15,1117.12C2082.56,1113.64 2078.23,1124.58 2076.66,1126.94C2073.04,1132.37 2062.09,1146.68 2056.34,1146.68" style="fill:none;stroke:black;stroke-width:5.52px;"/>
    </g>
    <g id="レイヤー2">
        <g transform="matrix(3.06578,0,0,2.62259,-4765.24,-2131.48)">
            <path d="M2064.84,1457.12C2062.56,1455.77 2064.75,1462.14 2064.92,1462.67" style="fill:none;stroke:black;stroke-width:5.52px;"/>
        </g>
        <g transform="matrix(3.06578,0,0,2.62259,-4765.24,-2131.48)">
            <path d="M2068.14,1478.97C2065.53,1479.48 2067.19,1481.62 2067.78,1483.39" style="fill:none;stroke:black;stroke-width:5.52px;"/>
        </g>
        <g transform="matrix(3.06578,0,0,2.62259,-4765.24,-2131.48)">
            <path d="M2076.24,1489.15C2073.77,1488.97 2075.29,1493.06 2075.64,1494.11" style="fill:none;stroke:black;stroke-width:5.52px;"/>
        </g>
        <g transform="matrix(3.06578,0,0,2.62259,-4765.24,-2131.48)">
            <path d="M2073.18,1507.5C2072.44,1507.18 2072.78,1508.06 2072.78,1508.76" style="fill:none;stroke:black;stroke-width:5.52px;"/>
        </g>
        <g transform="matrix(3.06578,0,0,2.62259,-4765.24,-2131.48)">
            <path d="M2064.47,1495.58C2062.57,1495.33 2064.61,1499.47 2065.28,1501.26" style="fill:none;stroke:black;stroke-width:5.52px;"/>
        </g>
        <g transform="matrix(3.06578,0,0,2.62259,-4765.24,-2131.48)">
            <path d="M2070.3,1520.38C2068.76,1521.07 2070.86,1525.27 2071.35,1526.27" style="fill:none;stroke:black;stroke-width:5.52px;"/>
        </g>
        <g transform="matrix(3.06578,0,0,2.62259,-4765.24,-2131.48)">
            <path d="M2080.81,1511.94C2078.59,1512.09 2080.69,1516.42 2081,1517.33" style="fill:none;stroke:black;stroke-width:5.52px;"/>
        </g>
        <g transform="matrix(3.06578,0,0,2.62259,-4765.24,-2131.48)">
            <path d="M2080.43,1474.44C2080.16,1475.15 2080.28,1475 2080.28,1475.89" style="fill:none;stroke:black;stroke-width:5.52px;"/>
        </g>
        <g transform="matrix(3.06578,0,0,2.62259,-4765.24,-2131.48)">
            <path d="M2076.9,1454.43C2076.07,1452.98 2076.55,1457.79 2076.71,1459.46" style="fill:none;stroke:black;stroke-width:5.52px;"/>
        </g>
        <g transform="matrix(3.06578,0,0,2.62259,-4765.24,-2131.48)">
            <path d="M2083.54,1448.12C2082.79,1447.95 2083.14,1448.19 2083.14,1449.1" style="fill:none;stroke:black;stroke-width:5.52px;"/>
        </g>
        <g transform="matrix(3.06578,0,0,2.62259,-4765.24,-2131.48)">
            <path d="M2167.55,1447.13C2164.93,1447.73 2166.02,1451.24 2167.45,1452.67" style="fill:none;stroke:black;stroke-width:5.52px;"/>
        </g>
        <g transform="matrix(3.06578,0,0,2.62259,-4765.24,-2131.48)">
            <path d="M2169.53,1462.6C2168.03,1462.98 2168.44,1464.2 2168.88,1465.53" style="fill:none;stroke:black;stroke-width:5.52px;"/>
        </g>
        <g transform="matrix(3.06578,0,0,2.62259,-4765.24,-2131.48)">
            <path d="M2176.5,1458.45C2174.32,1458.17 2176.5,1465.88 2176.74,1466.61" style="fill:none;stroke:black;stroke-width:5.52px;"/>
        </g>
        <g transform="matrix(3.06578,0,0,2.62259,-4765.24,-2131.48)">
            <path d="M2181.96,1439.87C2179.96,1440.51 2179.68,1442.39 2181.39,1444.1" style="fill:none;stroke:black;stroke-width:5.52px;"/>
        </g>
        <g transform="matrix(3.06578,0,0,2.62259,-4765.24,-2131.48)">
            <path d="M2174.05,1438.26C2171.39,1438.87 2173.36,1445.32 2173.53,1446.96" style="fill:none;stroke:black;stroke-width:5.52px;"/>
        </g>
        <g transform="matrix(3.06578,0,0,2.62259,-4765.24,-2131.48)">
            <path d="M2188.94,1441.85C2188.54,1445.58 2189.35,1449.38 2189.96,1453.03" style="fill:none;stroke:black;stroke-width:5.52px;"/>
        </g>
        <g transform="matrix(3.06578,0,0,2.62259,-4765.24,-2131.48)">
            <path d="M2187.19,1468.07C2185.41,1469.34 2187.6,1474.9 2187.82,1476.61" style="fill:none;stroke:black;stroke-width:5.52px;"/>
        </g>
        <g transform="matrix(3.06578,0,0,2.62259,-4765.24,-2131.48)">
            <path d="M2179.24,1487.6C2177.55,1489.71 2178.17,1490.9 2178.89,1493.76" style="fill:none;stroke:black;stroke-width:5.52px;"/>
        </g>
        <g transform="matrix(3.06578,0,0,2.62259,-4765.24,-2131.48)">
            <path d="M2170.94,1493.49C2170.34,1492.49 2171.01,1495.86 2171.38,1496.97" style="fill:none;stroke:black;stroke-width:5.52px;"/>
        </g>
        <g transform="matrix(3.06578,0,0,2.62259,-4765.24,-2131.48)">
            <path d="M2171.84,1475.57C2170.22,1476.21 2170.31,1476.31 2170.31,1478.04" style="fill:none;stroke:black;stroke-width:5.52px;"/>
        </g>
        <g transform="matrix(3.06578,0,0,2.62259,-4765.24,-2131.48)">
            <path d="M2179.51,1496.6C2177.09,1499.41 2179.13,1503.29 2181.39,1505.55" style="fill:none;stroke:black;stroke-width:5.52px;"/>
        </g>
        <g transform="matrix(3.06578,0,0,2.62259,-4765.24,-2131.48)">
            <path d="M2187.1,1490.8C2187.11,1492.5 2187.64,1493.94 2188.17,1495.54" style="fill:none;stroke:black;stroke-width:5.52px;"/>
        </g>
        <g transform="matrix(3.06578,0,0,2.62259,-4765.24,-2131.48)">
            <path d="M2184.89,1511.94C2182.56,1512.24 2184.58,1517.81 2184.96,1518.76" style="fill:none;stroke:black;stroke-width:5.52px;"/>
        </g>
        <g transform="matrix(3.06578,0,0,2.62259,-4765.24,-2131.48)">
            <path d="M2184.56,1525.29C2183.73,1526.92 2184.3,1528.13 2185.32,1529.48" style="fill:none;stroke:black;stroke-width:5.52px;"/>
        </g>
        <g transform="matrix(3.06578,0,0,2.62259,-4765.24,-2131.48)">
            <path d="M2195.58,1526.61C2196.17,1526.63 2196.45,1528.16 2196.75,1528.77" style="fill:none;stroke:black;stroke-width:5.52px;"/>
        </g>
        <g transform="matrix(3.06578,0,0,2.62259,-4765.24,-2131.48)">
            <path d="M2200.24,1534.07C2199.87,1535.1 2199.96,1535.86 2199.96,1536.98" style="fill:none;stroke:black;stroke-width:5.52px;"/>
        </g>
        <g transform="matrix(3.06578,0,0,2.62259,-4765.24,-2131.48)">
            <path d="M2248.56,1301.42C2247.53,1302.12 2247.83,1302.86 2247.83,1304.06" style="fill:none;stroke:black;stroke-width:5.52px;"/>
        </g>
        <g transform="matrix(3.06578,0,0,2.62259,-4765.24,-2131.48)">
            <path d="M2255.1,1301.61C2254.55,1302.97 2255.28,1304.61 2255.69,1305.84" style="fill:none;stroke:black;stroke-width:5.52px;"/>
        </g>
        <g transform="matrix(3.06578,0,0,2.62259,-4765.24,-2131.48)">
            <path d="M2254.49,1318.88C2253.48,1320.44 2253.15,1321.33 2254.26,1322.99" style="fill:none;stroke:black;stroke-width:5.52px;"/>
        </g>
        <g transform="matrix(3.06578,0,0,2.62259,-4765.24,-2131.48)">
            <path d="M2248.79,1326.13C2248.3,1328.44 2248.23,1330.06 2249.62,1331.92" style="fill:none;stroke:black;stroke-width:5.52px;"/>
        </g>
        <g transform="matrix(3.06578,0,0,2.62259,-4765.24,-2131.48)">
            <path d="M2240.55,1306.28C2237.67,1304.07 2240.13,1311.81 2240.33,1312.63" style="fill:none;stroke:black;stroke-width:5.52px;"/>
        </g>
        <g transform="matrix(3.06578,0,0,2.62259,-4765.24,-2131.48)">
            <path d="M2237.39,1286.85C2234.97,1287.42 2236.18,1289.89 2236.76,1291.91" style="fill:none;stroke:black;stroke-width:5.52px;"/>
        </g>
        <g transform="matrix(3.06578,0,0,2.62259,-4765.24,-2131.48)">
            <path d="M2247.94,1275.06C2246.58,1275.24 2247.12,1277.81 2247.12,1278.69" style="fill:none;stroke:black;stroke-width:5.52px;"/>
        </g>
        <g transform="matrix(3.06578,0,0,2.62259,-4765.24,-2131.48)">
            <path d="M2255.58,1271C2254.6,1273.25 2255.03,1274.93 2255.69,1277.26" style="fill:none;stroke:black;stroke-width:5.52px;"/>
        </g>
        <g transform="matrix(3.06578,0,0,2.62259,-4765.24,-2131.48)">
            <path d="M2264.09,1326.98C2263.08,1326.65 2264.33,1329.11 2264.62,1330.14" style="fill:none;stroke:black;stroke-width:5.52px;"/>
        </g>
        <g transform="matrix(3.06578,0,0,2.62259,-4765.24,-2131.48)">
            <path d="M2259.53,1352.08C2258.33,1354.09 2258.46,1354.67 2258.91,1356.93" style="fill:none;stroke:black;stroke-width:5.52px;"/>
        </g>
        <g transform="matrix(3.06578,0,0,2.62259,-4765.24,-2131.48)">
            <path d="M2254.87,1358.5C2253.93,1360.5 2254.15,1360.66 2255.34,1362.65" style="fill:none;stroke:black;stroke-width:5.52px;"/>
        </g>
        <g transform="matrix(3.06578,0,0,2.62259,-4765.24,-2131.48)">
            <path d="M2251.47,1342.88C2249.99,1343.78 2250.75,1345.77 2251.05,1347.28" style="fill:none;stroke:black;stroke-width:5.52px;"/>
        </g>
        <g transform="matrix(3.06578,0,0,2.62259,-4765.24,-2131.48)">
            <path d="M2261.6,1337.98C2261.75,1339.92 2261.51,1339.76 2262.48,1341.21" style="fill:none;stroke:black;stroke-width:5.52px;"/>
        </g>
        <g transform="matrix(3.06578,0,0,2.62259,-4765.24,-2131.48)">
            <path d="M1933.5,1357.46C1932.77,1357.15 1932.74,1357.12 1932.74,1358" style="fill:none;stroke:black;stroke-width:5.52px;"/>
        </g>
        <g transform="matrix(3.06578,0,0,2.62259,-4765.24,-2131.48)">
            <path d="M1937.79,1371.1C1936.17,1371.6 1936.32,1371.7 1936.32,1373.36" style="fill:none;stroke:black;stroke-width:5.52px;"/>
        </g>
        <g transform="matrix(3.06578,0,0,2.62259,-4765.24,-2131.48)">
            <path d="M1939.58,1375.43C1939.38,1377.22 1939.53,1379.08 1939.53,1380.87" style="fill:none;stroke:black;stroke-width:5.52px;"/>
        </g>
        <g transform="matrix(3.06578,0,0,2.62259,-4765.24,-2131.48)">
            <path d="M1946.64,1387.27C1946.74,1389.31 1947.03,1391.34 1947.03,1393.37" style="fill:none;stroke:black;stroke-width:5.52px;"/>
        </g>
        <g transform="matrix(3.06578,0,0,2.62259,-4765.24,-2131.48)">
            <path d="M1929.5,1363.03C1927.66,1366.85 1929.38,1371.51 1929.88,1375.51" style="fill:none;stroke:black;stroke-width:5.52px;"/>
        </g>
        <g transform="matrix(3.06578,0,0,2.62259,-4765.24,-2131.48)">
            <path d="M1929.45,1379.2C1930.22,1381.49 1929.4,1386.2 1929.88,1389.08" style="fill:none;stroke:black;stroke-width:5.52px;"/>
        </g>
        <g transform="matrix(3.06578,0,0,2.62259,-4765.24,-2131.48)">
            <path d="M1937.69,1392.5C1937,1394.47 1937.63,1395.1 1938.46,1397.3" style="fill:none;stroke:black;stroke-width:5.52px;"/>
        </g>
        <g transform="matrix(3.06578,0,0,2.62259,-4765.24,-2131.48)">
            <path d="M2067.01,1101.28C2066.62,1101.34 2066.1,1101.32 2066.47,1101.41" style="fill:none;stroke:black;stroke-width:5.52px;"/>
        </g>
        <g transform="matrix(3.06578,0,0,2.62259,-4765.24,-2131.48)">
            <path d="M2063.33,1106.73C2061.32,1105.65 2065.55,1100.55 2066.34,1099.5C2066.69,1099.02 2065.61,1100.46 2065.38,1101.01C2065.16,1101.53 2063.58,1104.48 2064.42,1105.11C2065.67,1106.04 2066.87,1101.86 2064.7,1102.37C2063.22,1102.72 2063.87,1108.21 2065.65,1107.71C2066.83,1107.38 2066.59,1104.4 2066.47,1103.6" style="fill:none;stroke:black;stroke-width:5.52px;"/>
        </g>
        <g transform="matrix(3.06578,0,0,2.62259,-4765.24,-2131.48)">
            <path d="M2064.51,1103.43C2064.02,1103.11 2064.29,1108.26 2064.97,1109.62" style="fill:none;stroke:black;stroke-width:5.52px;"/>
        </g>
    </g>
    <g id="レイヤー3">
        <g transform="matrix(3.06578,0,0,2.62259,-4765.24,-2131.48)">
            <path d="M2066.71,1098.66C2066.51,1098.67 2065.37,1098.36 2065.24,1098.54C2064.15,1100.18 2065.7,1106.86 2067.02,1102.24C2067.11,1101.92 2067.22,1101.6 2067.3,1101.28C2067.4,1100.78 2067.69,1100.27 2067.57,1099.77C2067.37,1098.96 2066.01,1100.65 2065.65,1101.41C2064.84,1103.16 2063.88,1106.23 2064.42,1108.12C2064.64,1108.88 2065.31,1106.72 2065.38,1105.93C2065.48,1104.82 2066.33,1099.17 2064.91,1098.69C2064.28,1098.48 2065.16,1103.63 2065.24,1104.02" style="fill:none;stroke:black;stroke-width:5.52px;"/>
        </g>
        <g transform="matrix(3.06578,0,0,2.62259,-4765.24,-2131.48)">
            <path d="M2065.14,1099.53C2062.62,1099.05 2063.93,1106.53 2063.88,1108.39C2063.84,1109.43 2063.05,1111.18 2064.04,1111.52C2065.23,1111.91 2065.58,1109.5 2065.65,1109.08C2065.96,1107.24 2066.51,1104.01 2065.38,1102.24C2065.33,1102.15 2062.82,1099.13 2062.37,1100.18C2061.42,1102.41 2061.87,1106.38 2062.1,1108.8C2062.16,1109.51 2062.39,1111.18 2063.46,1111.13C2064.57,1111.07 2065.12,1109.14 2065.3,1108.38C2065.88,1105.91 2065.86,1102.96 2065.52,1100.46C2065.41,1099.68 2065.17,1097.83 2064.01,1097.86C2062.66,1097.89 2063.28,1100.48 2063.19,1101.83C2062.98,1105.25 2061.76,1109.72 2064.42,1112.36" style="fill:none;stroke:black;stroke-width:5.52px;"/>
        </g>
        <g transform="matrix(3.06578,0,0,2.62259,-4765.24,-2131.48)">
            <path d="M2153.09,1095.65C2150.97,1095.79 2151.9,1099.44 2153.24,1100.33C2153.79,1100.7 2153.72,1099.08 2153.76,1098.42C2153.95,1095.78 2153.94,1093.11 2153.94,1090.43C2153.94,1089.9 2153.79,1091.47 2153.76,1091.99C2153.66,1094.07 2153.59,1096.16 2153.59,1098.25C2153.59,1098.92 2153.8,1100.64 2154.28,1100.16C2154.82,1099.62 2153.64,1093.77 2153.24,1093.9C2152.03,1094.31 2152.07,1100.08 2152.03,1101.03C2151.99,1101.84 2151.3,1103.1 2152.03,1103.46C2152.97,1103.94 2153.19,1101.77 2153.24,1101.55C2153.58,1100.01 2155.3,1093.12 2153.42,1091.99C2152.7,1091.56 2152.29,1093.28 2152.03,1094.08C2151.05,1097 2150.51,1099.86 2150.29,1102.94C2150.24,1103.59 2149.96,1105.38 2150.64,1105.72C2151.55,1106.18 2152.44,1103.73 2152.55,1103.46C2153.41,1101.3 2156.22,1094.9 2153.76,1092.86C2152.56,1091.85 2151.8,1095.08 2151.68,1095.47C2151.21,1096.95 2149.31,1104.04 2151.85,1104.68C2152.82,1104.92 2153.49,1101.55 2153.59,1101.2C2154.12,1099.33 2155.62,1093.41 2152.72,1092.69C2151.54,1092.39 2151.19,1094.9 2150.98,1095.47C2150.39,1097.11 2148.49,1103.21 2150.81,1103.98C2152.16,1104.43 2152.69,1102.01 2152.89,1101.2C2153.31,1099.54 2154.18,1093.81 2151.85,1093.03C2150.9,1092.71 2150.51,1094.11 2150.29,1094.77C2149.75,1096.39 2147.62,1103.38 2149.94,1104.16C2151.32,1104.62 2152.03,1102.21 2152.37,1101.38C2153.09,1099.62 2155,1090.78 2151.85,1090.25C2149.85,1089.92 2149.22,1092.24 2148.9,1093.73C2148.33,1096.36 2146.82,1104.03 2150.81,1105.03C2155.05,1106.09 2155,1097.43 2154.81,1095.12C2154.74,1094.26 2154.48,1092.07 2153.24,1091.82C2151.74,1091.52 2151.24,1094.16 2150.81,1095.12C2149.57,1097.89 2146.96,1105.62 2151.34,1106.71C2152.61,1107.03 2153.61,1105.02 2153.94,1104.16C2154.76,1101.98 2156.53,1093.24 2152.89,1092.51C2151.63,1092.26 2150.28,1094.09 2149.94,1095.12C2149.24,1097.22 2147.43,1104.87 2150.81,1105.55C2152.05,1105.8 2152.53,1104.26 2152.89,1103.29C2153.64,1101.29 2156.16,1092.07 2152.37,1091.12C2151.13,1090.81 2149.88,1092.69 2149.42,1093.56C2148.31,1095.61 2145.43,1104.58 2149.42,1105.37C2150.47,1105.59 2150.98,1103.64 2151.16,1102.94C2151.56,1101.32 2153.41,1093.9 2151.33,1093.21C2149.95,1092.75 2149.24,1094.69 2148.9,1095.64C2148.01,1098.12 2146.89,1105.09 2150.81,1106.07C2152.05,1106.38 2152.63,1103.72 2152.89,1102.94C2154.12,1099.27 2154.46,1095.49 2154.46,1091.64C2154.46,1090.17 2154.64,1087.34 2152.37,1087.99C2148.19,1089.19 2147.39,1097.61 2147.85,1100.85C2148.09,1102.52 2148.95,1104.65 2150.81,1105.03C2152.06,1105.28 2153.02,1103.09 2153.42,1102.25C2154.86,1099.15 2154.79,1095.46 2153.59,1092.34C2153.18,1091.28 2152.33,1090.04 2150.98,1090.43C2149.65,1090.81 2148.66,1092.56 2148.2,1093.73C2147.04,1096.72 2145.01,1106.28 2150.29,1106.94C2154.7,1107.49 2154.53,1097.23 2154.46,1095.12C2154.41,1093.64 2154.79,1091.33 2152.89,1090.95C2151.04,1090.58 2150.54,1094.16 2150.29,1095.29C2149.71,1097.9 2149.39,1100.45 2150.64,1102.94C2152.99,1107.65 2155.07,1104.66 2155.68,1101.03" style="fill:none;stroke:black;stroke-width:5.52px;"/>
        </g>
    </g>
</svg>
