<?xml version="1.0" encoding="UTF-8" standalone="no"?>
<!DOCTYPE svg PUBLIC "-//W3C//DTD SVG 1.1//EN" "http://www.w3.org/Graphics/SVG/1.1/DTD/svg11.dtd">
<svg width="100%" height="100%" viewBox="0 0 3508 2481" version="1.1" xmlns="http://www.w3.org/2000/svg" xmlns:xlink="http://www.w3.org/1999/xlink" xml:space="preserve" xmlns:serif="http://www.serif.com/" style="fill-rule:evenodd;clip-rule:evenodd;stroke-linecap:round;stroke-linejoin:round;stroke-miterlimit:1.5;">
    <g transform="matrix(8.90328,0,0,8.25106,-4268.68,-12668.2)">
        <path d="M719.758,1616.9C724.629,1610.86 722.243,1604.4 720.632,1597.96C715.537,1577.58 688.296,1558.48 665.696,1568.17C662.72,1569.44 657.732,1570.23 655.454,1572.51C648.491,1579.47 645.247,1589.76 647.384,1600.44C647.784,1602.45 651.502,1615.57 651.108,1615.96C648.908,1618.16 643.132,1618.93 640.245,1621.24C628.681,1630.49 619.085,1640.13 616.036,1655.38C614.358,1663.77 615.343,1672.23 619.761,1679.59C622.288,1683.8 628.443,1687.65 627.83,1687.04C626.941,1686.15 621.898,1689.16 621.002,1689.83C616.539,1693.18 607.764,1701.51 606.414,1706.9C600.675,1729.86 608.122,1752.53 628.141,1765.88C650.314,1780.66 680.497,1778.16 704.803,1772.08C714.788,1769.59 724.752,1767.05 733.358,1760.6C737.557,1757.45 742.425,1748.05 744.531,1743.84C748.429,1736.04 755.99,1729.37 757.877,1719.94C760.23,1708.18 753.397,1693.45 744.221,1686.11C741.914,1684.26 738.434,1680.32 735.53,1679.59C734.768,1679.4 730.254,1677.82 730.254,1677.42C730.254,1677.05 730.851,1676.96 731.185,1676.8C734.657,1675.06 737.512,1671.88 739.876,1668.73C744.734,1662.25 745.504,1653.23 744.531,1645.45C743.38,1636.24 737.521,1629.27 732.427,1622.48C730.841,1620.37 727.606,1619.06 725.288,1618.14C723.981,1617.61 719.846,1616.89 721.253,1616.89" style="fill:rgb(212,158,96);fill-opacity:0.98;stroke:black;stroke-width:3.67px;"/>
    </g>
    <g transform="matrix(8.90328,0,0,8.25106,-4241.86,-12706.8)">
        <path d="M698.343,1775.45C697.73,1775.23 697.704,1776.17 697.406,1776.73C696.733,1777.98 695.654,1779.08 695.205,1780.42C693.756,1784.77 691.053,1788.22 688.368,1791.97C686.934,1793.98 686.013,1796.37 684.439,1798.34C682.781,1800.41 680.606,1803.36 678.231,1804.55C677.852,1804.74 677.204,1804.34 676.895,1804.23C675.506,1803.77 674.655,1803.25 673.359,1802.5C671.514,1801.45 669.758,1801.6 668.172,1802.66C666.155,1804.01 666.392,1807.04 667.229,1808.71C667.638,1809.53 668.798,1810.24 669.351,1811.07C670.729,1813.14 671.543,1815.37 673.201,1817.36C674.355,1818.74 676.176,1819.32 677.759,1820.11C680.716,1821.59 683.768,1823.72 687.111,1824.19C691.509,1824.82 695.322,1819.39 697.563,1816.26C698.737,1814.61 699.881,1812.96 700.785,1811.15C701.813,1809.09 702.264,1806.67 703.378,1804.63C705.341,1801.03 707.913,1797.68 710.058,1794.17C712.336,1790.45 713.925,1786.2 715.873,1782.31C718.068,1777.92 721.499,1773.32 724.753,1769.65C725.957,1768.3 726.938,1767.5 727.504,1765.81C727.671,1765.3 727.758,1764.74 727.975,1764.23C728.091,1763.96 728.133,1763.37 728.133,1763.37C728.133,1763.37 727.725,1763.8 727.504,1764C726.987,1764.46 726.453,1764.97 725.854,1765.33C724.354,1766.23 722.417,1766.95 721.06,1768.08C718.696,1770.05 715.718,1770.76 712.887,1771.7C710.552,1772.48 708.209,1773.3 705.814,1773.9C703.753,1774.41 701.792,1775.18 699.763,1775.79C699.095,1775.99 698.317,1776.32 697.641,1776.41C697.373,1776.45 696.607,1776.57 696.62,1776.57" style="fill:rgb(213,156,142);stroke:black;stroke-width:3.67px;"/>
    </g>
    <g transform="matrix(8.90328,0,0,8.25106,-4272.86,-12678.4)">
        <path d="M636.77,1775.26C635.325,1776.08 634.755,1778.62 633.822,1780.17C630.92,1785.01 628.322,1790.11 625.289,1794.87C624.139,1796.68 623.118,1798.88 621.613,1800.39C621.395,1800.61 620.727,1801.57 620.432,1801.57C620.058,1801.57 620.205,1800.85 620.038,1800.52C619.59,1799.62 618.837,1798.66 618.069,1798.02C615.509,1795.89 608.752,1794.24 606.254,1797.24C600.662,1803.95 607.232,1814.61 613.868,1817.45C615.732,1818.25 618.359,1819.97 620.563,1819.42C626.444,1817.95 630.469,1810.81 634.084,1806.16C639.196,1799.59 646.156,1793.83 652.069,1787.92C654.547,1785.44 657.571,1782.81 659.946,1780.43C660.275,1780.1 662.308,1778.96 662.308,1778.6L661.39,1778.6C660.721,1778.6 660.079,1778.54 659.42,1778.46C657.102,1778.21 654.859,1777.92 652.594,1777.55C650.04,1777.12 647.498,1776.61 644.98,1776.1C642.128,1775.53 639.09,1773.26 636.185,1772.29C635.605,1772.1 635.66,1776.69 635.66,1776.5" style="fill:rgb(213,156,142);stroke:black;stroke-width:3.67px;"/>
    </g>
    <g transform="matrix(8.90328,0,0,8.25106,-4272.86,-12678.4)">
        <path d="M719.862,1616.95C720.093,1617 720.455,1616.84 720.681,1616.79C720.793,1616.76 720.901,1616.76 720.959,1616.82C721.017,1616.88 721.089,1616.93 721.073,1616.93" style="fill:rgb(115,109,104);stroke:black;stroke-width:3.67px;"/>
    </g>
    <g id="レイヤー1">
    </g>
    <g transform="matrix(8.90328,0,0,8.25106,-4272.86,-12678.4)">
        <path d="M660.757,1677.68C658.965,1676.11 657.93,1674.68 655.696,1673.57C651.475,1671.45 647.883,1676.48 646.192,1679.86C643.268,1685.7 641.517,1692.01 639.097,1698.06C637.758,1701.41 637.273,1704.84 634.68,1707.43" style="fill:none;stroke:black;stroke-width:3.67px;"/>
    </g>
    <g transform="matrix(8.90328,0,0,8.25106,-4272.86,-12678.4)">
        <path d="M655.374,1688.92C653.623,1689.13 653.415,1692.83 653.956,1694.18C654.1,1694.54 655.077,1695.89 655.562,1695.65C656.635,1695.12 656.362,1690.82 656.098,1689.76C656.004,1689.39 655.504,1687.85 654.893,1688.16C653.455,1688.88 654.154,1693.5 654.759,1694.72C655.048,1695.29 655.617,1694.55 655.696,1694.31" style="fill:none;stroke:black;stroke-width:3.67px;"/>
    </g>
    <g transform="matrix(1.51939,0,0,1.46213,449.664,-298.515)">
        <path d="M1020.47,1056C1004.43,1057.16 1015,1096.03 1023.05,1090.67C1037.54,1081.01 1026.26,1044.17 1005.86,1052.33C993.074,1057.44 1001.72,1092.82 1011.14,1095.96C1019.94,1098.89 1033.06,1060.51 1016.43,1054.97C994.512,1047.66 992.837,1096.47 1007.18,1101.25C1028.33,1108.3 1031.59,1065.52 1017.76,1056.29C1001.39,1045.38 998.039,1103.17 1023.05,1090.67C1034.36,1085.02 1033.79,1056.29 1019.08,1056.29" style="fill:none;stroke:black;stroke-width:21.12px;"/>
    </g>
    <g transform="matrix(8.90328,0,0,8.25106,-4272.86,-12678.4)">
        <path d="M695.589,1680.7C693.851,1680.45 697.299,1676.43 697.595,1675.84C699.615,1671.8 704.603,1670.37 708.572,1671.69C710.233,1672.25 711.739,1676.3 712.587,1677.72C713.18,1678.7 714.068,1679.64 714.729,1680.53C716.79,1683.27 716.853,1687.85 718.344,1690.83C719.125,1692.4 720.619,1695.13 720.619,1696.72" style="fill:none;stroke:black;stroke-width:3.67px;"/>
    </g>
    <g transform="matrix(8.90328,0,0,8.25106,-4272.86,-12678.4)">
        <path d="M653.488,1618.41C653.687,1618.02 653.567,1620.03 653.421,1620.69C653.011,1622.53 653.412,1624.33 652.885,1626.18C651.423,1631.3 649.461,1636.2 647.263,1641.04C645.083,1645.83 641.326,1650.27 637.089,1653.35C635.492,1654.51 633.638,1655.28 632.003,1656.3C631.536,1656.59 629.037,1657.49 629.593,1657.77C633.602,1659.77 639.872,1655.94 643.782,1654.96C653.89,1652.43 663.99,1646.09 671.76,1639.43C675.473,1636.25 679.028,1633.75 681.13,1629.12C684.043,1622.71 686.478,1614.09 679.925,1609.18C678.72,1608.27 676.918,1607.04 675.374,1607.04" style="fill:none;stroke:black;stroke-width:3.67px;"/>
    </g>
    <g transform="matrix(8.90328,0,0,8.25106,-4272.86,-12678.4)">
        <path d="M721.319,1615.23C720.688,1615.12 720.246,1616.42 719.95,1616.81C718.718,1618.41 717.327,1619.93 715.666,1621.09C714.063,1622.21 712.859,1623.95 710.981,1624.57C709.533,1625.06 708.562,1626.18 707.233,1626.85C706.514,1627.21 704.957,1627.65 704.957,1627.65C704.957,1627.65 706.061,1627.49 706.43,1627.12C707.166,1626.38 708.645,1625.6 709.643,1624.97C712.71,1623.06 715.008,1620.77 717.942,1618.82C718.883,1618.19 720.887,1617.11 720.887,1615.74" style="fill:none;stroke:black;stroke-width:3.67px;"/>
    </g>
    <g transform="matrix(8.90328,0,0,8.25106,-4272.86,-12678.4)">
        <path d="M662.424,1738.54C660.607,1738.45 664.095,1742.08 665.683,1743.66C667.954,1745.94 676.244,1748.69 679.425,1747.1C685.806,1743.91 688.824,1742.17 693.853,1737.14C695.277,1735.71 697.291,1731.3 695.571,1731.3" style="fill:none;stroke:black;stroke-width:3.67px;"/>
    </g>
    <g transform="matrix(8.90328,0,0,8.25106,-4272.86,-12678.4)">
        <path d="M730.916,1723.91C730.581,1723.95 732.902,1733.37 733.138,1734.55C734.756,1742.64 733.245,1751.88 734.161,1760.13C735.019,1767.86 733.82,1775.99 733.82,1783.66C733.82,1785.11 734.434,1790.55 733.479,1791.51C731.843,1793.14 730.068,1793.23 730.068,1796.62C730.068,1800.4 734.798,1807.38 739.958,1804.81C743.911,1802.83 749.509,1801.73 751.895,1796.96C751.946,1796.86 751.895,1796.73 751.895,1796.62C751.895,1795.16 750.171,1781.5 749.849,1779.57C748.623,1772.22 752.324,1764.23 750.531,1757.06C748.877,1750.44 744.392,1729.36 744.392,1723.3" style="fill:rgb(213,156,142);stroke:black;stroke-width:3.67px;"/>
    </g>
    <g transform="matrix(8.90328,0,0,8.25106,-4272.86,-12678.4)">
        <path d="M614.389,1721.61C614.998,1721.07 607.613,1733.57 605.59,1737.62C602.432,1743.94 598.762,1749.91 595.358,1756.04C594.148,1758.22 593.93,1762.92 592.63,1764.22C591.513,1765.34 585.925,1764.56 584.104,1767.29C582.547,1769.63 581.203,1773.31 584.445,1775.48C586.584,1776.9 589.288,1777.4 591.266,1778.89C593.7,1780.71 596.113,1780.1 598.769,1779.57C609.653,1777.39 601.635,1770.74 608.318,1761.83C614.452,1753.66 620.3,1744.05 627.416,1736.94" style="fill:rgb(213,156,142);stroke:black;stroke-width:3.67px;"/>
    </g>
    <g transform="matrix(1.51939,0,0,1.46213,27.9323,-293.756)">
        <path d="M1020.47,1056C1004.43,1057.16 1015,1096.03 1023.05,1090.67C1037.54,1081.01 1026.26,1044.17 1005.86,1052.33C993.074,1057.44 1001.72,1092.82 1011.14,1095.96C1019.94,1098.89 1033.06,1060.51 1016.43,1054.97C994.512,1047.66 992.837,1096.47 1007.18,1101.25C1028.33,1108.3 1031.59,1065.52 1017.76,1056.29C1001.39,1045.38 998.039,1103.17 1023.05,1090.67C1034.36,1085.02 1033.79,1056.29 1019.08,1056.29" style="fill:none;stroke:black;stroke-width:21.12px;"/>
    </g>
</svg>
