<?xml version="1.0" encoding="UTF-8" standalone="no"?>
<!DOCTYPE svg PUBLIC "-//W3C//DTD SVG 1.1//EN" "http://www.w3.org/Graphics/SVG/1.1/DTD/svg11.dtd">
<svg width="100%" height="100%" viewBox="0 0 3508 2481" version="1.1" xmlns="http://www.w3.org/2000/svg" xmlns:xlink="http://www.w3.org/1999/xlink" xml:space="preserve" xmlns:serif="http://www.serif.com/" style="fill-rule:evenodd;clip-rule:evenodd;stroke-linecap:round;stroke-linejoin:round;stroke-miterlimit:1.5;">
    <g transform="matrix(1.04597,3.94063e-17,-5.8063e-17,0.709881,-0.830864,400.642)">
        <ellipse cx="1619.71" cy="2222.25" rx="388.659" ry="71.418" style="fill:rgb(128,128,128);stroke:rgb(128,128,128);stroke-width:105.69px;"/>
    </g>
    <g id="レイヤー1">
    </g>
    <g transform="matrix(1.66742,0,0,1.39893,-1120.43,-787.368)">
        <path d="M1560.11,1799.04C1559.16,1798.54 1563.14,1803.14 1563.14,1806.3L1563.14,1831.94C1563.14,1853.31 1556.63,1878.96 1561.86,1899.87C1563.56,1906.67 1561.22,1915.56 1561.22,1922.31C1561.22,1954.76 1553.22,1952.41 1538.79,1981.27C1533.81,1991.24 1548.59,1987.87 1550.97,1990.24C1552.3,1991.58 1540.91,2003.8 1547.12,2006.91C1551.21,2008.95 1560.58,2004.34 1560.58,2004.34C1560.58,2004.34 1560.8,2011.61 1563.14,2013.96C1565.11,2015.92 1575.32,2013.03 1575.32,2010.75C1575.32,2009.6 1574.04,2012.81 1574.04,2013.96C1574.04,2017.56 1578.56,2018.6 1581.73,2017.8C1588.28,2016.17 1602,1977.91 1606.09,1969.73C1610.89,1960.13 1615.01,1949.32 1619.55,1940.25C1622.98,1933.38 1611.21,1926.22 1611.21,1919.1C1611.21,1893.6 1611.26,1866.2 1614.42,1840.91C1617.15,1819.08 1625.93,1787.63 1618.9,1766.56C1613.85,1751.4 1587.09,1750.48 1576.61,1758.87C1562.11,1770.47 1562.51,1787.09 1562.51,1803.74" style="fill:rgb(252,226,196);stroke:black;stroke-width:11.02px;"/>
    </g>
    <g transform="matrix(1.55219,0,0,1.34074,-871.843,-668.911)">
        <path d="M1695.52,1767.35C1690.53,1765.25 1691.97,1815.96 1691.97,1826.17C1691.97,1853.97 1690.6,1884.54 1694.53,1912.05C1699.05,1943.69 1679.25,1948.28 1703.51,1980.63C1709.76,1988.96 1730.43,2025.17 1746.45,2017.16C1751.17,2014.8 1748.11,2009.73 1750.29,2007.55C1752.15,2005.69 1760.49,2010.86 1763.11,2005.62C1764.09,2003.67 1761.09,1998.68 1761.83,1997.93C1762.34,1997.42 1796.05,2000.06 1781.7,1976.14C1778.88,1971.44 1773.13,1970.78 1769.52,1967.17C1759.04,1956.68 1734.54,1937 1737.48,1922.31C1746.55,1876.94 1745.26,1827.74 1740.68,1781.94C1738.63,1761.44 1720.65,1739.16 1700.94,1758.87" style="fill:rgb(252,226,196);stroke:black;stroke-width:11.69px;"/>
    </g>
    <g transform="matrix(4.74033,0,0,4.24098,-3568.87,-5559.95)">
        <path d="M1049.87,1563.86C1046.28,1563.68 1055.69,1564.11 1057.61,1564.11C1064.53,1564.11 1070.59,1565.37 1077.02,1561.08C1085.59,1555.37 1092.89,1548.49 1098.85,1539.56C1099.97,1537.88 1101.97,1529.55 1104.31,1529.55" style="fill:none;stroke:black;stroke-width:3.77px;"/>
    </g>
    <g transform="matrix(1.25094,0,0,1.11056,-510.54,-254.394)">
        <path d="M1441.51,1562.85C1441.68,1560.24 1410.95,1596.37 1407.1,1604.07C1390.51,1637.26 1363.96,1663.42 1346.16,1696.05C1340.5,1706.42 1326.01,1742.35 1315.11,1747.8C1296.98,1756.86 1280,1760.23 1266.82,1779.99C1262.05,1787.14 1293.27,1787.34 1293.27,1781.14C1293.27,1777.01 1272.14,1813.58 1281.77,1816.79C1295.88,1821.49 1301.37,1796.09 1309.36,1796.09C1312.79,1796.09 1306.3,1802.22 1304.77,1805.29C1303.27,1808.27 1290.19,1835.31 1296.72,1837.48C1305.64,1840.46 1327.76,1817.22 1327.76,1809.89C1327.76,1809.02 1325.46,1813.2 1325.46,1814.49C1325.46,1820 1323.29,1831.83 1327.76,1835.18C1340.51,1844.74 1346.79,1824.09 1349.61,1815.64C1350.26,1813.68 1351.91,1809.89 1351.91,1809.89C1351.91,1809.89 1359.64,1837.07 1368.01,1832.88C1375.18,1829.3 1361.28,1778.49 1368.01,1765.04C1384.53,1732 1495.64,1621.28 1495.64,1602.92" style="fill:rgb(252,226,196);stroke:black;stroke-width:14.34px;"/>
    </g>
    <g transform="matrix(4.79344,0,0,4.24098,-3638.21,-5570.13)">
        <path d="M1156.37,1550.46C1154.74,1550.36 1156.72,1548.32 1157.37,1547.42C1159.04,1545.12 1160.73,1541.84 1161.1,1539.24C1162.36,1530.46 1160.44,1522.48 1155.18,1514.6C1151.3,1508.77 1147.94,1504.64 1142.3,1500.58C1132.96,1493.86 1122.41,1491.61 1109.72,1492.59C1101.64,1493.21 1091.89,1498.48 1089.31,1500.46C1086.63,1502.53 1081.02,1508.66 1080.13,1510.06C1075.91,1516.66 1073.07,1522.24 1071.1,1528.14C1068.22,1536.8 1064.42,1542.15 1057.16,1548.1C1051.47,1552.75 1043.97,1554.97 1036.68,1555.58C1034.2,1555.79 1032.13,1554.88 1029.99,1553.81C1028.86,1553.24 1026.45,1552.43 1026.45,1552.43C1026.45,1552.43 1028.29,1553.35 1029.2,1553.81C1030.79,1554.6 1032.44,1554.78 1033.93,1555.78C1037.6,1558.22 1042.97,1562 1047.32,1562.86C1049.22,1563.24 1049.75,1563.74 1051.72,1563.78C1053.55,1563.82 1051.13,1563.63 1051.13,1563.63C1051.13,1563.63 1050.56,1563.52 1049.57,1563.47C1047.26,1563.35 1045.93,1565.69 1044.82,1567C1043.27,1568.83 1041.15,1571.75 1040.29,1573.08C1037.17,1577.91 1034.85,1581.42 1033.13,1586.27C1031.39,1591.2 1030.83,1596.7 1031.77,1601.46C1032.37,1604.47 1033.64,1608.32 1034.72,1610.73C1036.63,1614.99 1038.96,1617.88 1042.34,1621.65C1045.4,1625.06 1048.98,1629.05 1053.29,1630.57C1054.82,1631.12 1054.49,1631 1056.03,1631.51C1056.64,1631.72 1055.07,1632.12 1055.07,1632.12C1055.07,1632.12 1054.72,1632.33 1053.84,1632.6C1051.26,1633.39 1046.77,1635.31 1044.23,1636.31C1036.36,1639.39 1030.51,1643.76 1027.79,1646.36C1020.77,1653.05 1015.06,1659.93 1013.12,1670.35C1012.36,1674.46 1012.05,1680.6 1012.34,1682.79C1012.78,1686.06 1014.21,1691.75 1015.97,1695.17C1018.95,1700.95 1023.25,1706.57 1028.18,1710.96C1030.51,1713.03 1037.55,1717.67 1041.59,1719.71C1047.69,1722.78 1055.37,1725.73 1064.2,1726.96C1077.35,1728.79 1086.18,1729.15 1096.62,1729.89C1106.21,1730.58 1114.34,1729.79 1121.4,1729.39C1127.4,1729.06 1150.46,1726.56 1169.61,1720.85C1184.27,1716.48 1192.17,1709.31 1199.88,1703.95C1203.4,1701.5 1205.61,1696.9 1208.11,1691.08C1210.68,1685.12 1211.15,1680.12 1210.65,1675.68C1209.98,1669.65 1209.26,1664.2 1205.4,1658.19C1202.99,1654.42 1198.79,1649.02 1193.02,1644.89C1183.08,1637.78 1178.23,1636.65 1175.31,1635.56C1170.39,1633.72 1173.3,1635.17 1175.31,1635.56C1176.97,1635.87 1174.2,1635.6 1175.31,1635.56C1178.29,1635.43 1179.7,1634.16 1178.84,1633.99C1178.69,1633.96 1181.02,1633.35 1177.17,1635.15C1174.91,1636.2 1179.77,1633.52 1181.95,1632.09C1183.66,1630.97 1185.01,1629.24 1186.06,1627.96C1189.44,1623.88 1191.42,1618.15 1192.6,1612.87C1193.6,1608.36 1194.18,1602.04 1193.31,1597.65C1190.96,1585.92 1184.73,1574.77 1176.24,1566.39C1172.4,1562.6 1167.43,1558.85 1163.07,1555.58C1161.38,1554.32 1159.56,1552.64 1157.95,1551.84C1157.45,1551.59 1156.37,1550.15 1156.37,1550.46Z" style="fill:rgb(231,157,17);stroke:rgb(20,13,15);stroke-width:4.55px;"/>
    </g>
    <g transform="matrix(4.74033,0,0,4.24098,-3616.78,-5631.27)">
        <path d="M1079.83,1678.13C1080.3,1676.95 1081.4,1676.24 1081.9,1675.1C1084.11,1670.14 1090.5,1660.75 1097.16,1662.98C1099.21,1663.66 1100.51,1666.12 1101.86,1667.47C1101.86,1667.48 1103.55,1669.5 1103.62,1669.43C1109.67,1663.38 1117.64,1655.55 1126.31,1662.78C1128.07,1664.24 1128.89,1664.96 1130.36,1666.67C1131.46,1667.97 1132.79,1669.58 1133.53,1671.06C1133.57,1671.15 1134.4,1673.27 1134.33,1673.34C1134.04,1673.64 1131.8,1672.45 1131.4,1672.37C1128.81,1671.79 1126.24,1671.78 1123.57,1671.78C1114.97,1671.78 1105.63,1668.83 1096.97,1671C1093.39,1671.89 1087.84,1672.4 1084.64,1674.32C1083.48,1675.02 1079.09,1677.84 1080.53,1677.84" style="fill:rgb(149,54,99);stroke:rgb(20,13,15);stroke-width:2.96px;"/>
    </g>
    <g transform="matrix(4.74033,0,0,4.24098,-3619.78,-5632.56)">
        <path d="M1080.2,1677.68C1080.1,1677.63 1081.54,1679.82 1081.78,1680.18C1082.63,1681.46 1083.77,1682.01 1085.3,1682.75C1086.61,1683.38 1088.17,1683.85 1089.47,1684.1C1092.01,1684.59 1093.91,1684.9 1095.2,1684.91C1096.41,1684.93 1100.21,1684.52 1101.41,1684.36C1103.67,1684.05 1104.67,1683.71 1106.82,1682.96C1108.63,1682.33 1111.45,1681.13 1113.17,1680.23C1115.74,1678.88 1117.99,1677.09 1120.72,1676.01C1123.45,1674.94 1126.54,1674.1 1129.46,1673.77C1130.49,1673.66 1131.37,1673.82 1132.36,1673.82C1132.68,1673.82 1132.83,1674.03 1133.1,1674.08C1133.31,1674.12 1133.72,1674.17 1133.72,1674.17C1133.72,1674.17 1133.5,1673.92 1133.37,1673.82C1133.06,1673.56 1132.68,1673.36 1132.31,1673.2C1131.32,1672.79 1130,1672.39 1128.93,1672.28C1125.17,1671.91 1121.12,1672.58 1117.43,1671.76C1115.79,1671.39 1113.4,1670.94 1111.76,1670.63C1109.34,1670.18 1107.46,1669.99 1105,1669.83C1104.11,1669.78 1100.86,1669.89 1099.96,1669.95C1096.39,1670.17 1095.47,1670.77 1092.04,1671.71C1091.03,1671.98 1089.42,1672.6 1088.81,1672.84C1087.65,1673.29 1086.2,1674.24 1085.06,1674.79C1083.21,1675.68 1083.27,1675.53 1082.22,1676.37C1081.63,1676.84 1080.67,1677.21 1080.2,1677.68Z" style="fill:rgb(149,54,99);stroke:rgb(20,13,15);stroke-width:3.23px;"/>
    </g>
    <g transform="matrix(0.777576,0,0,0.736116,282.058,496.553)">
        <path d="M1199.76,710.866C1198.66,709.139 1199.03,709.395 1197.77,708.138" style="fill:none;stroke:rgb(252,226,196);stroke-width:4.8px;"/>
    </g>
    <g transform="matrix(0.690662,0,0,0.546986,848.39,724.383)">
        <path d="M1242.79,749.034C1181.91,730.062 1166.07,876.438 1171.8,889.666C1175.54,898.292 1178.88,899.62 1190.25,905.302C1201.24,910.8 1208.07,912.238 1219.98,916.686C1235.16,922.352 1248.88,926.908 1270.8,934.118C1281.78,937.728 1297.01,940.811 1303.29,941.858C1316.59,944.075 1331.79,947.078 1344.9,950.356C1354.44,952.742 1396.27,961.475 1406.9,960.037C1427.42,957.262 1389.29,893.815 1381.82,881.356C1355.99,838.31 1267.81,745.661 1214.19,745.661" style="fill:white;"/>
    </g>
    <g transform="matrix(0.724488,0,0,0.56901,840.254,711.412)">
        <path d="M1025.71,824.314C1024.61,824.113 1015.36,803.952 1016.47,803.813C1025.41,802.696 1009.67,791.433 1004.93,783.535C1000.18,775.626 989.119,765.716 978.152,773.028C952.544,790.1 918.319,866.202 915.435,895.04C911.846,930.933 859.983,984.89 884.579,1020.13C891.545,1030.11 907.451,1033.8 914.588,1028.53C938.497,1010.86 1046.27,910.961 1050.74,888.607C1058.32,850.708 1015.78,828.492 1015.78,794.693" style="fill:white;"/>
    </g>
    <g transform="matrix(1.3794,0,0,1.99571,-702.376,-677.05)">
        <ellipse cx="1635.7" cy="946.523" rx="14.49" ry="21.809"/>
    </g>
    <g transform="matrix(1.3794,0,0,1.92696,-556.5,-630.301)">
        <ellipse cx="1635.7" cy="946.523" rx="14.49" ry="21.809"/>
    </g>
    <g transform="matrix(0.777576,0,0,0.736116,282.058,496.553)">
        <ellipse cx="1496.85" cy="443.225" rx="3.189" ry="2.147"/>
    </g>
    <g transform="matrix(0.887451,0,0,0.767582,631.729,547.372)">
        <path d="M855.701,670.985C857.143,676.466 889.173,670.175 913.044,660.025C970.079,635.773 1103,574.908 1103,486.032" style="fill:none;stroke:black;stroke-width:20.44px;"/>
    </g>
    <g transform="matrix(1.25094,0,0,1.11056,-465.413,-231.493)">
        <path d="M1664.43,1371.01C1653.56,1376.2 1636.32,1367.2 1625.9,1379.36C1616.55,1390.27 1617.7,1411.6 1634.16,1419.84C1645.95,1425.73 1679.42,1422.47 1689.03,1412.85" style="fill:none;stroke:black;stroke-width:14.34px;"/>
    </g>
    <g transform="matrix(1.25094,0,0,1.11056,-417.991,-259.599)">
        <path d="M1884.06,1549.22C1881.55,1548.8 1898.15,1578.04 1903.83,1587.97C1917.44,1611.79 1933.51,1635.84 1946.37,1661.56C1965.03,1698.88 1989.35,1734.87 2006.16,1768.49C2011.87,1779.9 2002.99,1802.55 2017.66,1809.89C2028.18,1815.14 2029.16,1776.54 2029.16,1776.54C2029.16,1776.54 2028.71,1781.19 2029.16,1783.44C2030.3,1789.16 2047.93,1830.21 2061.35,1816.79C2062.92,1815.22 2054.29,1782.29 2053.3,1782.29C2052.04,1782.29 2057.77,1788.99 2057.9,1789.19C2060.25,1792.71 2079.26,1801.18 2083.2,1797.24C2083.58,1796.86 2071.06,1761.08 2068.25,1763.89C2067.12,1765.03 2095.56,1780.57 2099.3,1773.09C2104.38,1762.93 2091.13,1752.91 2083.2,1748.95C2081.45,1748.07 2077.45,1747.8 2077.45,1747.8C2077.45,1747.8 2109.38,1747.27 2105.05,1738.6C2096.56,1721.62 2068.41,1734.16 2059.05,1724.8C2032.72,1698.47 1933.72,1549.23 1933.72,1525.88" style="fill:rgb(252,226,196);stroke:black;stroke-width:14.34px;"/>
    </g>
    <g transform="matrix(4.14792,0,0,3.62925,-2926.11,-4576.44)">
        <path d="M1089.51,1589.92C1087.63,1587.36 1086.55,1583.96 1086.25,1583.66C1084.74,1582.15 1082.9,1574.65 1080.26,1575.53C1077.69,1576.38 1076.04,1579.73 1074.6,1581.76C1073.26,1583.66 1071.78,1586.09 1070.75,1588.15C1069.83,1589.99 1068.19,1593.59 1067.27,1595.43C1065.39,1599.2 1064.98,1601.2 1063.48,1605.15C1062.58,1607.53 1061.37,1611.64 1060.52,1614.04C1060.25,1614.77 1059.84,1617.5 1059.84,1618.26" style="fill:none;stroke:rgb(20,13,15);stroke-width:4.35px;"/>
    </g>
    <g transform="matrix(3.68918,0,0,3.0823,-2459.06,-3703.64)">
        <path d="M1115.02,1588.46C1115.05,1585.46 1115.01,1587.6 1115.56,1584.87C1115.99,1582.75 1117.42,1579.4 1118.31,1577.45C1119.41,1575.04 1120.3,1572.19 1122.34,1570.35C1124.87,1568.07 1129.88,1569.95 1132.58,1571.37C1136.92,1573.65 1141.12,1576.95 1144.19,1580.61C1147.23,1584.23 1149.64,1587.6 1152.14,1591.63C1153.67,1594.11 1155.27,1596.83 1156.95,1599.33C1157.59,1600.29 1160.24,1605.98 1159.68,1605.42" style="fill:none;stroke:rgb(20,13,15);stroke-width:4.99px;"/>
    </g>
    <g transform="matrix(0.777576,0,0,0.736116,-283.042,546.279)">
        <path d="M2441.79,1126.5C2440.26,1126.68 2440.26,1120.62 2440.26,1122.16C2440.26,1142.78 2432.34,1163.2 2432.34,1184.35" style="fill:none;stroke:black;stroke-width:17.6px;"/>
    </g>
</svg>
