<?xml version="1.0" encoding="UTF-8" standalone="no"?>
<!DOCTYPE svg PUBLIC "-//W3C//DTD SVG 1.1//EN" "http://www.w3.org/Graphics/SVG/1.1/DTD/svg11.dtd">
<svg width="100%" height="100%" viewBox="0 0 3508 2481" version="1.1" xmlns="http://www.w3.org/2000/svg" xmlns:xlink="http://www.w3.org/1999/xlink" xml:space="preserve" xmlns:serif="http://www.serif.com/" style="fill-rule:evenodd;clip-rule:evenodd;stroke-linecap:round;stroke-linejoin:round;stroke-miterlimit:1.5;">
    <ellipse cx="1722.77" cy="2246.65" rx="339.035" ry="72.337" style="fill:rgb(128,128,128);"/>
    <g transform="matrix(1.33294,0,0,1.25967,-512.287,-284.525)">
        <path d="M1560.11,1799.04C1559.16,1798.54 1563.14,1803.14 1563.14,1806.3L1563.14,1831.94C1563.14,1853.31 1556.63,1878.96 1561.86,1899.87C1563.56,1906.67 1561.22,1915.56 1561.22,1922.31C1561.22,1954.76 1553.22,1952.41 1538.79,1981.27C1533.81,1991.24 1548.59,1987.87 1550.97,1990.24C1552.3,1991.58 1540.91,2003.8 1547.12,2006.91C1551.21,2008.95 1560.58,2004.34 1560.58,2004.34C1560.58,2004.34 1560.8,2011.61 1563.14,2013.96C1565.11,2015.92 1575.32,2013.03 1575.32,2010.75C1575.32,2009.6 1574.04,2012.81 1574.04,2013.96C1574.04,2017.56 1578.56,2018.6 1581.73,2017.8C1588.28,2016.17 1602,1977.91 1606.09,1969.73C1610.89,1960.13 1615.01,1949.32 1619.55,1940.25C1622.98,1933.38 1611.21,1926.22 1611.21,1919.1C1611.21,1893.6 1611.26,1866.2 1614.42,1840.91C1617.15,1819.08 1625.93,1787.63 1618.9,1766.56C1613.85,1751.4 1587.09,1750.48 1576.61,1758.87C1562.11,1770.47 1562.51,1787.09 1562.51,1803.74" style="fill:rgb(252,226,196);stroke:black;stroke-width:13.08px;"/>
    </g>
    <g transform="matrix(1.24083,0,0,1.20727,-313.563,-177.86)">
        <path d="M1695.52,1767.35C1690.53,1765.25 1691.97,1815.96 1691.97,1826.17C1691.97,1853.97 1690.6,1884.54 1694.53,1912.05C1699.05,1943.69 1679.25,1948.28 1703.51,1980.63C1709.76,1988.96 1730.43,2025.17 1746.45,2017.16C1751.17,2014.8 1748.11,2009.73 1750.29,2007.55C1752.15,2005.69 1760.49,2010.86 1763.11,2005.62C1764.09,2003.67 1761.09,1998.68 1761.83,1997.93C1762.34,1997.42 1796.05,2000.06 1781.7,1976.14C1778.88,1971.44 1773.13,1970.78 1769.52,1967.17C1759.04,1956.68 1734.54,1937 1737.48,1922.31C1746.55,1876.94 1745.26,1827.74 1740.68,1781.94C1738.63,1761.44 1720.65,1739.16 1700.94,1758.87" style="fill:rgb(252,226,196);stroke:black;stroke-width:13.85px;"/>
    </g>
    <g transform="matrix(3.78942,0,0,3.81879,-2469.57,-4582)">
        <path d="M1049.87,1563.86C1046.28,1563.68 1055.69,1564.11 1057.61,1564.11C1064.53,1564.11 1070.59,1565.37 1077.02,1561.08C1085.59,1555.37 1092.89,1548.49 1098.85,1539.56C1099.97,1537.88 1101.97,1529.55 1104.31,1529.55" style="fill:none;stroke:black;stroke-width:4.46px;"/>
    </g>
    <g id="レイヤー1">
    </g>
    <g transform="matrix(1,0,0,1,-24.7372,195.392)">
        <path d="M1441.51,1562.85C1441.68,1560.24 1410.95,1596.37 1407.1,1604.07C1390.51,1637.26 1363.96,1663.42 1346.16,1696.05C1340.5,1706.42 1326.01,1742.35 1315.11,1747.8C1296.98,1756.86 1280,1760.23 1266.82,1779.99C1262.05,1787.14 1293.27,1787.34 1293.27,1781.14C1293.27,1777.01 1272.14,1813.58 1281.77,1816.79C1295.88,1821.49 1301.37,1796.09 1309.36,1796.09C1312.79,1796.09 1306.3,1802.22 1304.77,1805.29C1303.27,1808.27 1290.19,1835.31 1296.72,1837.48C1305.64,1840.46 1327.76,1817.22 1327.76,1809.89C1327.76,1809.02 1325.46,1813.2 1325.46,1814.49C1325.46,1820 1323.29,1831.83 1327.76,1835.18C1340.51,1844.74 1346.79,1824.09 1349.61,1815.64C1350.26,1813.68 1351.91,1809.89 1351.91,1809.89C1351.91,1809.89 1359.64,1837.07 1368.01,1832.88C1375.18,1829.3 1361.28,1778.49 1368.01,1765.04C1384.53,1732 1495.64,1621.28 1495.64,1602.92" style="fill:rgb(252,226,196);stroke:black;stroke-width:16.96px;"/>
    </g>
    <g transform="matrix(3.78942,0,0,3.81879,-2484.66,-4580.93)">
        <path d="M1159.68,1550.09C1158.04,1549.99 1159.73,1548.04 1159.92,1546.92C1160.32,1544.5 1161.1,1542 1161.1,1539.24C1161.1,1530.42 1161.63,1522.13 1156.37,1514.24C1152.49,1508.41 1148.08,1505.51 1142.2,1501.84C1131.68,1495.26 1122.41,1491.61 1109.72,1492.59C1101.64,1493.21 1094.94,1497.43 1087.87,1500.46C1085.78,1501.35 1082.96,1502.18 1081.17,1503.61C1075.98,1507.76 1074.68,1516.02 1072.71,1521.92C1069.83,1530.57 1064.42,1542.15 1057.16,1548.1C1051.47,1552.75 1043.97,1554.97 1036.68,1555.58C1034.2,1555.79 1032.13,1554.88 1029.99,1553.81C1028.86,1553.24 1026.45,1552.43 1026.45,1552.43C1026.45,1552.43 1028.29,1553.35 1029.2,1553.81C1030.79,1554.6 1032.44,1554.78 1033.93,1555.78C1037.6,1558.22 1042.97,1562 1047.32,1562.86C1049.22,1563.24 1051.05,1563.65 1053.02,1563.65L1056.17,1563.65C1056.17,1563.65 1053.94,1563.33 1052.83,1563.45C1050.52,1563.71 1048.49,1564.54 1046.72,1566.01C1044.94,1567.5 1044.42,1569.61 1042.98,1571.33C1039.33,1575.72 1036.15,1580.82 1034.32,1586.29C1032.86,1590.68 1031.36,1596.42 1032.75,1601.05C1033.58,1603.83 1034.37,1607.44 1035.48,1610.03C1037.29,1614.24 1039.44,1617.75 1043.18,1620.74C1046.77,1623.61 1050.39,1626.39 1054.01,1629.2C1055.29,1630.21 1056.41,1631.06 1057.94,1631.57C1058.56,1631.77 1057.94,1631.57 1057.94,1631.57C1057.94,1631.57 1057.84,1632.28 1056.96,1632.55C1054.39,1633.34 1052.08,1634.76 1049.48,1635.5C1042.08,1637.62 1035.17,1638.85 1029.6,1645.35C1023.28,1652.72 1018.9,1660.43 1015.62,1669.17C1014.11,1673.21 1012.36,1678.07 1013.26,1682.55C1013.9,1685.78 1015.19,1689.1 1016.01,1692.4C1017.6,1698.76 1020.26,1704.44 1025.27,1708.74C1028.73,1711.71 1037.61,1717.54 1041.59,1719.71C1049.38,1723.96 1055.37,1725.73 1064.2,1726.96C1077.35,1728.79 1086.18,1729.15 1096.62,1729.89C1106.21,1730.58 1114.92,1731.2 1124.48,1729.6C1143.55,1726.43 1163.96,1721.58 1180.79,1711.49C1189.5,1706.26 1199.25,1701.91 1206.97,1695.15C1209.68,1692.78 1213.76,1690.52 1215.24,1687.08C1219.66,1676.77 1220.88,1666.37 1216.81,1655.78C1215.87,1653.34 1215.11,1650.16 1213.46,1648.1C1208.41,1641.79 1199.08,1636.88 1191.22,1635.31C1187.76,1634.62 1183.66,1632.42 1180,1633.34C1178.36,1633.75 1176.77,1635.15 1175.27,1635.9C1174.36,1636.35 1168.14,1638.37 1167.51,1639.01C1167.46,1639.05 1173.65,1636.27 1174.09,1636.1C1176.4,1635.17 1179.38,1633.95 1181.18,1632.16C1182.42,1630.92 1184.75,1630.21 1185.71,1628.61C1188.45,1624.03 1191.42,1618.15 1192.6,1612.87C1193.6,1608.36 1195.05,1600.72 1194.17,1596.33C1191.83,1584.6 1180.62,1576.97 1174.88,1567.39C1172.06,1562.7 1167.43,1558.85 1163.07,1555.58C1161.38,1554.32 1159.56,1552.64 1157.95,1551.84C1157.45,1551.59 1156.37,1550.15 1156.37,1550.46" style="fill:rgb(161,120,72);stroke:rgb(20,13,15);stroke-width:4.46px;"/>
    </g>
    <g transform="matrix(0.620771,0,0,0.591474,1014.79,980.103)">
        <path d="M1019.77,795.033C1019.96,794.92 1020.15,794.807 1020.34,794.693" style="fill:white;stroke:black;stroke-width:27.97px;"/>
    </g>
    <g transform="matrix(0.620771,0,0,0.591474,1014.79,980.103)">
        <path d="M1018.42,813.21C1017.31,813.009 1020.37,811.937 1021.48,811.798C1030.42,810.681 1033.06,809.433 1028.33,801.535C1023.58,793.626 989.119,765.716 978.152,773.028C952.544,790.1 918.319,866.202 915.435,895.04C911.846,930.933 855.991,1019.18 885.788,1048.98C890.32,1053.51 908.364,1049.21 912.014,1045.56C933.376,1024.2 1035.26,928.797 1039.73,906.443C1047.31,868.543 1015.78,828.492 1015.78,794.693" style="fill:white;"/>
    </g>
    <g transform="matrix(0.552116,0,0,0.559942,1085.1,1014.73)">
        <path d="M1242.79,749.034C1181.91,730.062 1161.78,875.692 1169.72,883.637C1176.25,890.169 1178.88,899.62 1190.25,905.302C1201.24,910.8 1213.46,913.508 1225.84,916.209C1241.85,919.702 1261.61,918.392 1276.45,926.917C1283.94,931.217 1293.56,933.129 1302.72,935.556C1315.75,939.008 1318.54,940.795 1331.64,944.072C1341.19,946.458 1399.99,966.947 1406.9,960.037C1421.89,945.046 1389.29,893.815 1381.82,881.356C1355.99,838.31 1267.81,745.661 1214.19,745.661" style="fill:white;"/>
    </g>
    <g transform="matrix(3.31585,0,0,3.26796,-1953.37,-3714.21)">
        <path d="M1088.19,1581.76C1088.18,1581.76 1087.74,1580.62 1087.45,1580.32C1085.93,1578.81 1082.9,1574.65 1080.26,1575.53C1077.69,1576.38 1076.04,1579.73 1074.6,1581.76C1073.26,1583.66 1072.47,1585.73 1071.44,1587.8C1070.52,1589.63 1069.2,1591.23 1068.28,1593.07C1066.39,1596.84 1064.98,1601.2 1063.48,1605.15C1062.58,1607.53 1061.75,1609.94 1060.89,1612.34C1060.63,1613.07 1059.75,1613.97 1059.75,1614.73" style="fill:none;stroke:rgb(20,13,15);stroke-width:5.15px;"/>
    </g>
    <g transform="matrix(2.94914,0,0,2.77546,-1554.16,-2921)">
        <path d="M1114.69,1586.16C1114.42,1586.62 1115.75,1583.85 1115.91,1583.29C1116.52,1581.23 1117.42,1579.4 1118.31,1577.45C1119.41,1575.04 1120.3,1572.19 1122.34,1570.35C1124.87,1568.07 1130.57,1569.13 1133.26,1570.55C1137.6,1572.83 1141.12,1576.95 1144.19,1580.61C1147.23,1584.23 1150.51,1587.79 1153.01,1591.83C1154.54,1594.3 1155.34,1597.32 1157.42,1599.4C1158.01,1599.99 1160.65,1602.92 1160.1,1602.37" style="fill:none;stroke:rgb(20,13,15);stroke-width:5.92px;"/>
    </g>
    <g transform="matrix(3.78942,0,0,3.81879,-2469.57,-4582)">
        <path d="M1079.83,1678.13C1080.3,1676.95 1081.4,1676.24 1081.9,1675.1C1084.11,1670.14 1090.5,1660.75 1097.16,1662.98C1099.21,1663.66 1100.51,1666.12 1101.86,1667.47C1101.86,1667.48 1103.55,1669.5 1103.62,1669.43C1109.67,1663.38 1117.64,1655.55 1126.31,1662.78C1128.07,1664.24 1129.34,1666.15 1130.81,1667.87C1131.92,1669.16 1133.79,1670.1 1134.53,1671.58C1134.57,1671.67 1134.4,1673.27 1134.33,1673.34C1134.04,1673.64 1131.8,1672.45 1131.4,1672.37C1128.81,1671.79 1126.24,1671.78 1123.57,1671.78C1114.97,1671.78 1105.63,1668.83 1096.97,1671C1093.39,1671.89 1087.84,1672.4 1084.64,1674.32C1083.48,1675.02 1079.09,1677.84 1080.53,1677.84" style="fill:rgb(149,54,99);stroke:rgb(20,13,15);stroke-width:4.46px;"/>
    </g>
    <g transform="matrix(3.78942,0,0,3.81879,-2469.57,-4582)">
        <path d="M1081.42,1678.12C1081.32,1678.06 1082.07,1679.38 1082.31,1679.75C1083.16,1681.02 1084.01,1681.7 1085.52,1682.2C1086.88,1682.66 1088.24,1683.32 1089.64,1683.65C1092.16,1684.25 1094.97,1684.1 1097.55,1684.31C1098.75,1684.41 1100.03,1684.52 1101.23,1684.36C1103.49,1684.05 1105.68,1683 1107.82,1682.25C1109.64,1681.61 1111.45,1681.13 1113.17,1680.23C1115.74,1678.88 1117.99,1677.09 1120.72,1676.01C1123.45,1674.94 1126.54,1674.1 1129.46,1673.77C1130.49,1673.66 1131.37,1673.82 1132.36,1673.82C1132.68,1673.82 1132.83,1674.03 1133.1,1674.08C1133.31,1674.12 1133.72,1674.17 1133.72,1674.17C1133.72,1674.17 1133.5,1673.92 1133.37,1673.82C1133.06,1673.56 1132.68,1673.36 1132.31,1673.2C1131.32,1672.79 1130,1672.39 1128.93,1672.28C1125.17,1671.91 1121.12,1672.58 1117.43,1671.76C1115.79,1671.39 1114.07,1671.54 1112.43,1671.23C1110.01,1670.78 1107.74,1670.33 1105.27,1670.17C1104.38,1670.12 1103.58,1669.9 1102.68,1669.95C1099.11,1670.18 1095.57,1671.92 1092.14,1672.85C1091.13,1673.13 1090.04,1673.46 1088.98,1673.56C1087.75,1673.67 1086.5,1673.61 1085.3,1673.95C1083.92,1674.34 1083.27,1675.53 1082.22,1676.37C1081.63,1676.84 1080.67,1677.21 1080.2,1677.68" style="fill:rgb(149,54,99);stroke:rgb(20,13,15);stroke-width:4.46px;"/>
    </g>
    <g transform="matrix(2.94914,0,0,3.09374,-1554.79,-3429.33)">
        <path d="M1131.86,1586.57C1131.65,1586.19 1131.5,1587.36 1131.37,1587.77C1131.12,1588.52 1131.21,1588.47 1131.03,1589.25C1130.57,1591.23 1129.57,1596.8 1133.66,1595.78C1134.33,1595.61 1134.47,1594.82 1134.57,1594.29C1135.05,1591.93 1135.26,1589.48 1135.26,1587.08C1135.26,1586.32 1135,1584.37 1133.54,1585.25C1132.99,1585.58 1132.96,1586.68 1132.86,1587.19C1132.39,1589.45 1132.17,1591.76 1132.06,1594.06C1132.02,1594.8 1131.66,1597.22 1133.18,1596.91C1133.86,1596.78 1134.3,1595.42 1134.49,1594.91C1135.36,1592.59 1135.58,1589.88 1135.38,1587.42C1135.33,1586.87 1135.13,1585.81 1134.46,1585.59C1133.75,1585.35 1133.38,1586.47 1133.2,1586.85C1132.46,1588.46 1132.33,1590.86 1132.51,1592.57C1132.54,1592.82 1132.76,1595.74 1133.77,1595.44C1134.27,1595.29 1134.43,1594.09 1134.46,1593.95C1135.04,1591.36 1135.45,1588.59 1135.38,1585.93C1135.36,1585.4 1135.18,1584.3 1134.39,1584.46C1133.45,1584.64 1132.97,1586.37 1132.74,1587.08C1132.18,1588.82 1130.74,1594.81 1133.31,1595.66C1134.36,1596.01 1134.91,1594.46 1135.13,1593.77C1135.73,1591.82 1135.87,1589.68 1135.83,1587.65C1135.82,1586.98 1135.93,1585.75 1135.03,1585.59C1132.69,1585.19 1132.89,1591.47 1133.02,1592.63C1133.1,1593.29 1133.33,1594.72 1134.2,1594.86C1136.16,1595.19 1135.89,1589.03 1135.83,1588.22C1135.8,1587.74 1135.8,1585.95 1135.03,1585.82C1134.32,1585.7 1134.25,1587.06 1134.12,1587.77C1133.88,1589.02 1132.68,1593.19 1134.23,1594.06C1135.02,1594.51 1135.33,1592.53 1135.38,1592.35C1135.6,1591.43 1136.78,1587.6 1135.15,1587.19C1134.59,1587.05 1134.15,1587.98 1134,1588.34C1133.58,1589.36 1132.32,1595.18 1134.8,1594.77C1135.86,1594.59 1135.98,1593.15 1136.06,1592.35C1136.31,1589.82 1136.51,1587.28 1135.89,1584.78C1135.72,1584.12 1135.58,1583.19 1134.8,1582.96C1133.37,1582.53 1132.31,1584.72 1131.94,1585.7C1130.94,1588.38 1131.09,1591.1 1131.96,1593.73C1132.19,1594.4 1132.83,1596.14 1133.64,1596.34C1134.83,1596.64 1135.22,1593.14 1135.26,1592.92C1135.67,1590.87 1135.85,1588.82 1135.95,1586.74C1135.98,1586.05 1136.57,1584.16 1135.31,1584.16C1134.32,1584.16 1133.27,1585.56 1132.86,1586.28C1131.53,1588.6 1129.35,1596.64 1134.46,1596.69C1136.79,1596.72 1136.66,1591.78 1136.63,1590.4C1136.61,1589.25 1136.62,1588.11 1136.52,1586.97C1136.45,1586.2 1136.25,1584.41 1135.05,1584.41C1133.96,1584.41 1133.33,1585.5 1132.97,1586.39C1132.03,1588.72 1131.58,1591.62 1132.28,1594.06C1132.59,1595.13 1133.56,1597.06 1135.03,1596.69C1137.88,1595.99 1137.49,1589.85 1137.49,1587.8C1137.49,1586.94 1137.62,1584.98 1136.4,1584.67C1133.58,1583.96 1132.58,1590.22 1132.58,1591.98C1132.58,1593.03 1132.52,1594.61 1133.86,1594.84C1137.84,1595.5 1137.34,1588.88 1137.09,1586.54C1137,1585.77 1136.94,1583.1 1135.6,1583.19C1134.52,1583.26 1133.89,1584.4 1133.43,1585.25C1132.07,1587.71 1129.47,1595.45 1134.24,1596.32C1138.19,1597.04 1137.27,1590.29 1137.03,1588.12C1136.95,1587.39 1136.87,1586.66 1136.75,1585.93C1136.57,1584.85 1136.33,1582.5 1134.71,1582.68C1133.6,1582.81 1132.7,1584.36 1132.23,1585.2C1130.78,1587.83 1129.28,1594.94 1134.12,1595.55C1137.01,1595.92 1137.18,1589.26 1137.1,1587.6C1137.06,1586.91 1136.97,1585.12 1136.1,1584.83C1134.87,1584.42 1133.88,1586.15 1133.43,1586.97C1132.28,1589.02 1129.79,1597.02 1134.46,1597.04C1137.51,1597.05 1137.5,1591.25 1137.5,1589.3C1137.5,1588.54 1137.52,1586.37 1136.4,1586.16C1132.93,1585.52 1132.07,1590.77 1132.28,1593.26C1132.41,1594.69 1133.49,1596.64 1135.26,1596.12C1137.65,1595.43 1136.79,1589.48 1136.4,1588C1136.06,1586.66 1135.13,1585.15 1133.89,1586.51" style="fill:none;stroke:black;stroke-width:5.61px;"/>
    </g>
    <g transform="matrix(3.31585,0,0,3.26796,-1953.37,-3714.21)">
        <path d="M1075.87,1592.07C1075.34,1592.17 1075.18,1594.16 1075.16,1594.29C1074.82,1596.7 1074.73,1598.96 1074.59,1601.39C1074.54,1602.28 1074.15,1603.98 1075.54,1603.98C1076.39,1603.98 1076.89,1602.03 1077.07,1601.5C1077.85,1599.15 1078.39,1596.89 1078.48,1594.41C1078.52,1593.32 1079.3,1591.16 1078.21,1591.16C1077.24,1591.16 1076.63,1593.25 1076.42,1593.83C1075.59,1596.16 1075.26,1598.69 1075.27,1601.16C1075.28,1601.93 1075.6,1604.72 1077.11,1604.14C1078.06,1603.77 1078.02,1602.43 1078.14,1601.62C1078.43,1599.58 1078.73,1597.38 1078.48,1595.32C1078.38,1594.48 1077.95,1591.79 1076.46,1592.43C1073.88,1593.54 1074.26,1599.19 1074.63,1601.24C1074.75,1601.9 1075.54,1604.71 1076.76,1604.37C1077.75,1604.09 1078.04,1603.09 1078.25,1602.19C1078.86,1599.55 1078.84,1596.65 1078.53,1593.98C1078.49,1593.63 1078.32,1590.05 1077.11,1590.28C1076.35,1590.43 1076.19,1591.65 1076.08,1592.23C1075.48,1595.23 1074.96,1598.43 1075.27,1601.5C1075.37,1602.4 1075.68,1604.6 1077.08,1604.4C1077.73,1604.3 1078.14,1603.39 1078.37,1602.88C1079.39,1600.47 1079.67,1597.71 1079.75,1595.13C1079.79,1593.91 1080.04,1591.87 1078.37,1592C1075.18,1592.25 1074.65,1599.04 1074.7,1601.27C1074.72,1602.35 1074.96,1604.27 1076.43,1604.27C1077.55,1604.27 1078.08,1602.86 1078.37,1602.02C1079.24,1599.54 1079.3,1596.43 1079.17,1593.83C1079.12,1592.94 1079.2,1591.16 1078.02,1590.97C1076.66,1590.75 1076.12,1594.75 1076.08,1594.98C1075.63,1597.12 1075.25,1599.95 1075.99,1602.06C1076.29,1602.92 1076.86,1603.97 1077.94,1603.86C1078.75,1603.78 1079.17,1602.92 1079.51,1602.31C1080.8,1599.9 1081.2,1597.25 1081.2,1594.54C1081.2,1594.04 1081.32,1591.69 1080.33,1591.44C1079.18,1591.16 1078.22,1592.57 1077.75,1593.37C1076.55,1595.4 1076.03,1597.68 1075.85,1600.02C1075.79,1600.8 1075.38,1603.64 1076.96,1603.84C1077.95,1603.96 1078.52,1602.95 1078.83,1602.19C1079.79,1599.86 1079.85,1596.89 1079.85,1594.41C1079.85,1593.98 1080,1591.87 1079.4,1591.62C1078.01,1591.07 1077.33,1593.2 1076.99,1594.06C1076.24,1596.01 1074.6,1601.79 1076.88,1603.22C1078.29,1604.11 1079.28,1602 1079.62,1601.05C1080.45,1598.79 1081.41,1592.78 1078.94,1591.2C1077.93,1590.56 1076.16,1592.6 1075.73,1593.26C1074.29,1595.49 1074.01,1598.75 1074.72,1601.26C1075.02,1602.28 1075.65,1604.03 1076.88,1604.26C1078.57,1604.56 1079.47,1602.79 1079.97,1601.5C1080.94,1598.95 1081.33,1595.99 1081.04,1593.27C1080.95,1592.48 1080.67,1590.38 1079.54,1590.19C1075.28,1589.48 1073.91,1597.34 1074.16,1600.07C1074.27,1601.3 1074.82,1603.45 1076.42,1603.56C1077.89,1603.67 1078.74,1602.32 1079.21,1601.13C1080.24,1598.56 1080.61,1595.67 1080.15,1592.93C1079.97,1591.85 1079.56,1589.86 1078.02,1590.4C1074.65,1591.58 1073.55,1597.02 1073.9,1600.02C1074.11,1601.85 1074.73,1604.17 1076.88,1604.48C1078.25,1604.67 1078.87,1603.2 1079.39,1602.31C1080.72,1600.06 1080.75,1596.56 1080.34,1594.08C1080.19,1593.22 1079.81,1590.61 1078.66,1590.32C1077.16,1589.95 1075.86,1591.46 1075.05,1592.46C1072.99,1594.97 1072.46,1601.22 1076.36,1602.21C1077.46,1602.49 1078.42,1601.35 1078.95,1600.57C1080.56,1598.26 1080.45,1594.66 1079.62,1592.12C1079.21,1590.84 1078.47,1589.62 1076.95,1590.38C1073.18,1592.27 1072.89,1597.47 1073.56,1601.05C1073.9,1602.91 1074.53,1604.86 1076.7,1604.9C1077.95,1604.92 1078.61,1602.79 1078.93,1601.97C1079.97,1599.32 1080.08,1596.53 1079.97,1593.72C1079.93,1592.82 1080.25,1589.97 1078.67,1589.74C1072.93,1588.92 1070.04,1601.86 1075.91,1602.81C1079.3,1603.37 1079.77,1596.54 1079.74,1594.63C1079.73,1593.99 1079.7,1593.34 1079.64,1592.7C1079.54,1591.66 1079.48,1589.09 1078.02,1588.91C1076.6,1588.74 1075.25,1590.94 1074.75,1591.94C1073.46,1594.51 1072.3,1603.19 1077.46,1602.68C1080.4,1602.38 1080.64,1596.2 1080.08,1594.29C1079.87,1593.57 1079.33,1592.62 1078.53,1592.46C1075.14,1591.79 1071.69,1599.78 1076.08,1600.93C1079.19,1601.75 1079.69,1596.41 1079.69,1594.52C1079.69,1594.11 1079.7,1591.81 1078.9,1591.71C1077.97,1591.6 1077.29,1592.99 1076.96,1593.61C1075.99,1595.43 1075.62,1597.39 1075.73,1599.44C1075.78,1600.25 1075.77,1601.51 1076.76,1601.73C1077.82,1601.97 1078.5,1600.93 1078.87,1600.11C1079.57,1598.59 1080.42,1593.43 1078.37,1592.55C1077.45,1592.16 1076.8,1593.13 1076.3,1593.72C1075.14,1595.09 1074.16,1599.76 1076.08,1600.93C1077.14,1601.58 1078.12,1599.97 1078.52,1599.26C1079.37,1597.77 1080.74,1592.74 1078.86,1591.48C1078.05,1590.94 1077.36,1591.84 1076.97,1592.42C1076.3,1593.43 1073.13,1598.66 1075.62,1598.64" style="fill:none;stroke:black;stroke-width:5.15px;"/>
    </g>
    <g transform="matrix(0.709429,0,0,0.69117,903.001,918.201)">
        <path d="M849.973,680.827C851.415,686.308 891.473,686.831 899.199,679.105C944.373,633.932 1103,574.908 1103,486.032" style="fill:none;stroke:black;stroke-width:24.21px;"/>
    </g>
    <g transform="matrix(1,0,0,1,32.4436,224.532)">
        <path d="M1656.5,1366.04C1645.63,1371.24 1642.59,1365.28 1632.17,1377.44C1622.82,1388.35 1617.7,1411.6 1634.16,1419.84C1645.95,1425.73 1679.42,1422.47 1689.03,1412.85" style="fill:none;stroke:black;stroke-width:16.96px;"/>
    </g>
    <g transform="matrix(1,0,0,1,32.4436,224.532)">
        <path d="M1656.06,1456.19C1659.78,1452.43 1654.73,1466.5 1655.37,1472.22C1656.9,1485.98 1656.22,1500.09 1656.22,1513.99C1656.22,1515.98 1656,1518.25 1657.93,1518.25" style="fill:none;stroke:black;stroke-width:16.96px;"/>
    </g>
    <g transform="matrix(1,0,0,1,32.4436,224.532)">
        <path d="M1686.12,1454.85C1685.19,1473.82 1688.62,1494.31 1688.62,1512.28" style="fill:none;stroke:black;stroke-width:16.96px;"/>
    </g>
    <g transform="matrix(1,0,0,1,81.4025,211.746)">
        <path d="M1884.06,1549.22C1881.55,1548.8 1898.15,1578.04 1903.83,1587.97C1917.44,1611.79 1933.51,1635.84 1946.37,1661.56C1965.03,1698.88 1989.35,1734.87 2006.16,1768.49C2011.87,1779.9 2002.99,1802.55 2017.66,1809.89C2028.18,1815.14 2029.16,1776.54 2029.16,1776.54C2029.16,1776.54 2028.71,1781.19 2029.16,1783.44C2030.3,1789.16 2047.93,1830.21 2061.35,1816.79C2062.92,1815.22 2054.29,1782.29 2053.3,1782.29C2052.04,1782.29 2057.77,1788.99 2057.9,1789.19C2060.25,1792.71 2079.26,1801.18 2083.2,1797.24C2083.58,1796.86 2071.06,1761.08 2068.25,1763.89C2067.12,1765.03 2095.56,1780.57 2099.3,1773.09C2104.38,1762.93 2091.13,1752.91 2083.2,1748.95C2081.45,1748.07 2077.45,1747.8 2077.45,1747.8C2077.45,1747.8 2109.38,1747.27 2105.05,1738.6C2096.56,1721.62 2068.41,1734.16 2059.05,1724.8C2032.72,1698.47 1933.72,1549.23 1933.72,1525.88" style="fill:rgb(252,226,196);stroke:black;stroke-width:16.96px;"/>
    </g>
    <g transform="matrix(1,0,0,1,33.1639,220.583)">
        <path d="M1947.15,1535.01C1944.55,1535.95 1944.74,1525.43 1943.85,1524.53C1938.21,1518.89 1940.68,1506.19 1950.93,1508.75C1955.92,1510 1952.45,1521.54 1952.86,1524.85C1953.26,1528.03 1955.5,1528.13 1957.37,1530.01C1958.24,1530.87 1960.4,1532.36 1961.88,1531.62C1967.75,1528.68 1964.69,1512.89 1959.63,1510.36C1957.42,1509.26 1953.58,1505.79 1950.93,1508.43C1946.43,1512.93 1950.01,1521.78 1954.47,1525.5C1955.39,1526.26 1961.13,1530.12 1962.53,1528.72C1964.59,1526.65 1963.1,1513.87 1960.59,1512.62C1959.42,1512.03 1958.34,1509.39 1958.34,1509.39C1958.34,1509.39 1961.38,1511.74 1962.53,1513.26C1963.77,1514.91 1966.07,1522.82 1966.07,1524.85" style="fill:none;stroke:rgb(252,226,196);stroke-width:16.96px;"/>
    </g>
</svg>
